<?xml version="1.0" encoding="utf-8"?>
<!-- Generator: Adobe Illustrator 21.1.0, SVG Export Plug-In . SVG Version: 6.00 Build 0)  -->
<svg version="1.1" id="Слой_1" xmlns="http://www.w3.org/2000/svg" xmlns:xlink="http://www.w3.org/1999/xlink" x="0px" y="0px"
	 viewBox="0 0 176 105" style="enable-background:new 0 0 176 105;" xml:space="preserve">
<style type="text/css">
	.st0{fill:#CFF5FF;}
	.st1{enable-background:new    ;}
	.st2{fill:#1667B9;}
	.st3{fill:#45C3E5;}
</style>
<polygon class="st0" points="176.2,104.5 1.2,104.5 1.2,30 31.3,0.5 176.2,0.5 "/>
<g class="st1">
	<path class="st2" d="M43.1,83.8v6.9l2.6-6.9H48v10.7h-2v-6.9l-2.6,6.9H41V83.8H43.1z"/>
	<path class="st2" d="M56.4,83.8l1.5,7.6l0,0l1.5-7.6h3.2v10.7h-2V86l0,0l-1.9,8.5H57L55.2,86l0,0v8.5h-2V83.8H56.4z"/>
	<path class="st2" d="M69,83.8l2.8,10.7h-2.3L69,92.2h-2.8l-0.5,2.3h-2.3l2.8-10.7H69z M67.7,85.7L67.7,85.7l-1.1,4.8h2.1L67.7,85.7
		z"/>
	<path class="st2" d="M72,85.6v-1.8h6.8v1.8h-2.3v8.9h-2.2v-8.9H72z"/>
	<path class="st2" d="M85.8,83.8v1.8H82v2.5h3.6v1.8H82v2.9h4v1.8h-6.1V83.8H85.8z"/>
	<path class="st2" d="M90.8,83.8c0.5,0,1,0.1,1.4,0.3c0.4,0.2,0.7,0.4,0.9,0.7c0.2,0.3,0.4,0.6,0.5,1s0.2,0.8,0.2,1.2
		c0,0.6-0.1,1-0.2,1.4c-0.2,0.4-0.4,0.7-0.7,1s-0.7,0.5-1.1,0.6s-0.9,0.2-1.4,0.2h-1.2v4.3H87V83.8H90.8z M91.2,88.2
		c0.3-0.3,0.4-0.7,0.4-1.2s-0.1-1-0.3-1.2c-0.2-0.3-0.6-0.4-1.2-0.4h-0.9v3.3h1C90.6,88.6,90.9,88.5,91.2,88.2z"/>
	<path class="st2" d="M96.8,83.8v6.9l2.6-6.9h2.3v10.7h-2.1v-6.9L97,94.5h-2.3V83.8H96.8z"/>
	<path class="st2" d="M108,83.8l2.8,10.7h-2.3l-0.5-2.3h-2.8l-0.5,2.3h-2.3l2.8-10.7H108z M106.7,85.7L106.7,85.7l-1.1,4.8h2.1
		L106.7,85.7z"/>
	<path class="st2" d="M111.3,94.6c-0.2,0-0.3,0-0.4-0.1v-1.8c0,0,0.1,0,0.2,0s0.1,0,0.1,0c0.2,0,0.3,0,0.5,0c0.1,0,0.3-0.1,0.4-0.3
		c0.1-0.2,0.2-0.4,0.3-0.8s0.2-0.9,0.2-1.5c0.1-0.7,0.1-1.5,0.1-2.5s0-2.3,0-3.7h6.1v10.7h-2.2v-8.9h-1.9c0,1.3,0,2.4-0.1,3.3
		c0,0.9-0.1,1.7-0.2,2.4s-0.2,1.2-0.3,1.6c-0.1,0.4-0.3,0.8-0.5,1s-0.5,0.4-0.8,0.5s-0.7,0.1-1.1,0.1
		C111.7,94.6,111.5,94.6,111.3,94.6z"/>
	<path class="st2" d="M121.8,94.3c-0.5-0.3-0.8-0.6-1.1-1.1s-0.4-1.1-0.5-1.7s-0.1-1.4-0.1-2.3c0-0.8,0-1.6,0.1-2.2
		c0.1-0.7,0.2-1.3,0.5-1.8s0.6-0.9,1.1-1.1c0.5-0.3,1.1-0.4,1.9-0.4s1.5,0.1,1.9,0.4c0.5,0.3,0.8,0.7,1.1,1.1s0.4,1.1,0.5,1.8
		c0.1,0.7,0.1,1.4,0.1,2.2c0,0.8,0,1.6-0.1,2.3s-0.2,1.3-0.5,1.7s-0.6,0.9-1.1,1.1c-0.5,0.3-1.1,0.4-1.9,0.4
		C122.9,94.7,122.3,94.5,121.8,94.3z M124.5,92.9c0.2-0.1,0.3-0.4,0.5-0.7c0.1-0.3,0.2-0.7,0.2-1.2s0.1-1.1,0.1-1.8
		c0-0.7,0-1.3-0.1-1.8s-0.1-0.9-0.2-1.2c-0.1-0.3-0.3-0.6-0.5-0.7s-0.5-0.2-0.8-0.2s-0.6,0.1-0.8,0.2s-0.3,0.4-0.5,0.7
		c-0.1,0.3-0.2,0.7-0.2,1.2s-0.1,1.1-0.1,1.8s0,1.3,0.1,1.8s0.1,0.9,0.2,1.2c0.1,0.3,0.3,0.5,0.5,0.7c0.2,0.1,0.5,0.2,0.8,0.2
		S124.3,93,124.5,92.9z"/>
	<path class="st2" d="M132.3,83.8c0.4,0,0.8,0,1.2,0.1s0.7,0.2,1,0.4c0.3,0.2,0.5,0.5,0.6,0.8c0.2,0.4,0.2,0.8,0.2,1.3
		c0,0.6-0.1,1.1-0.4,1.5c-0.3,0.4-0.7,0.7-1.2,0.8l0,0c0.6,0.1,1.1,0.3,1.4,0.8c0.3,0.4,0.5,1,0.5,1.7c0,0.4-0.1,0.8-0.2,1.2
		c-0.1,0.4-0.3,0.7-0.6,1s-0.6,0.5-1,0.7s-1,0.3-1.6,0.3h-3.6V83.8H132.3z M132.8,87.9c0.3-0.2,0.4-0.6,0.4-1.1s-0.1-0.9-0.4-1.1
		s-0.6-0.3-1.2-0.3h-0.8v2.8h0.6C132,88.2,132.5,88.1,132.8,87.9z M132.9,92.6c0.3-0.2,0.5-0.7,0.5-1.3c0-0.3,0-0.6-0.1-0.8
		s-0.2-0.4-0.3-0.5s-0.3-0.2-0.5-0.3c-0.2,0-0.4-0.1-0.7-0.1h-0.9v3.2h0.8C132.2,92.9,132.6,92.8,132.9,92.6z"/>
	<g class="st1">
		<path class="st2" d="M25.8,67.8v10.7h-2.2v-8.9h-2.5v8.9h-2.2V67.8H25.8z"/>
		<path class="st2" d="M28.8,78.3c-0.5-0.3-0.8-0.6-1.1-1.1s-0.4-1.1-0.5-1.7s-0.1-1.4-0.1-2.3c0-0.8,0-1.6,0.1-2.2
			c0.1-0.7,0.2-1.3,0.5-1.8s0.6-0.9,1.1-1.1c0.5-0.3,1.1-0.4,1.9-0.4s1.5,0.1,1.9,0.4c0.5,0.3,0.8,0.7,1.1,1.1s0.4,1.1,0.5,1.8
			c0.1,0.7,0.1,1.4,0.1,2.2c0,0.8,0,1.6-0.1,2.3s-0.2,1.3-0.5,1.7s-0.6,0.9-1.1,1.1c-0.5,0.3-1.1,0.4-1.9,0.4
			C29.9,78.7,29.2,78.5,28.8,78.3z M31.5,76.9c0.2-0.1,0.3-0.4,0.5-0.7c0.1-0.3,0.2-0.7,0.2-1.2s0.1-1.1,0.1-1.8
			c0-0.7,0-1.3-0.1-1.8s-0.1-0.9-0.2-1.2c-0.1-0.3-0.3-0.6-0.5-0.7s-0.5-0.2-0.8-0.2s-0.6,0.1-0.8,0.2s-0.3,0.4-0.5,0.7
			c-0.1,0.3-0.2,0.7-0.2,1.2s-0.1,1.1-0.1,1.8s0,1.3,0.1,1.8s0.1,0.9,0.2,1.2c0.1,0.3,0.3,0.5,0.5,0.7c0.2,0.1,0.5,0.2,0.8,0.2
			S31.3,77,31.5,76.9z"/>
		<path class="st2" d="M37.1,78.3c-0.5-0.3-0.8-0.6-1.1-1.1s-0.4-1.1-0.5-1.7s-0.1-1.4-0.1-2.3c0-0.8,0-1.6,0.1-2.2
			c0.1-0.7,0.2-1.3,0.5-1.8s0.6-0.9,1.1-1.1c0.5-0.3,1.1-0.4,1.9-0.4c0.8,0,1.4,0.1,1.8,0.4s0.8,0.6,1,1s0.4,0.8,0.4,1.2
			c0.1,0.4,0.1,0.9,0.1,1.3h-2.2c0-0.8-0.1-1.3-0.3-1.7c-0.2-0.4-0.5-0.5-1-0.5c-0.3,0-0.5,0.1-0.7,0.2s-0.3,0.4-0.4,0.7
			c-0.1,0.3-0.2,0.8-0.2,1.3s-0.1,1.2-0.1,1.9c0,0.8,0,1.5,0.1,2s0.1,0.9,0.3,1.2c0.1,0.3,0.3,0.5,0.4,0.6c0.2,0.1,0.4,0.1,0.6,0.1
			c0.2,0,0.4,0,0.5-0.1c0.2-0.1,0.3-0.2,0.4-0.4c0.1-0.2,0.2-0.5,0.3-0.8c0.1-0.4,0.1-0.8,0.1-1.4h2.2c0,0.6,0,1.1-0.1,1.7
			s-0.3,1-0.5,1.3c-0.2,0.4-0.6,0.7-1,0.9c-0.4,0.2-1,0.3-1.7,0.3C38.2,78.7,37.6,78.5,37.1,78.3z"/>
		<path class="st2" d="M43.1,69.6v-1.8h6.8v1.8h-2.3v8.9h-2.2v-8.9H43.1z"/>
		<path class="st2" d="M55.6,67.8l2.8,10.7h-2.3l-0.5-2.3h-2.8l-0.5,2.3H50l3-10.7H55.6z M54.3,69.7L54.3,69.7l-1.1,4.8h2.1
			L54.3,69.7z"/>
		<path class="st2" d="M62.8,67.8c0.4,0,0.8,0,1.2,0.1s0.7,0.2,1,0.4c0.3,0.2,0.5,0.5,0.6,0.8c0.2,0.4,0.2,0.8,0.2,1.3
			c0,0.6-0.1,1.1-0.4,1.5s-0.7,0.7-1.2,0.8l0,0c0.6,0.1,1.1,0.3,1.4,0.8c0.3,0.4,0.5,1,0.5,1.7c0,0.4-0.1,0.8-0.2,1.2
			c-0.1,0.4-0.3,0.7-0.6,1s-0.6,0.5-1,0.7s-1,0.3-1.6,0.3h-3.6V67.8H62.8z M63.3,71.9c0.3-0.2,0.4-0.6,0.4-1.1s-0.1-0.9-0.4-1.1
			s-0.6-0.3-1.2-0.3h-0.8v2.8H62C62.6,72.2,63,72.1,63.3,71.9z M63.5,76.6c0.3-0.2,0.5-0.7,0.5-1.3c0-0.3,0-0.6-0.1-0.8
			s-0.2-0.4-0.3-0.5s-0.3-0.2-0.5-0.3c-0.2,0-0.4-0.1-0.7-0.1h-0.9v3.2h0.8C62.7,76.9,63.2,76.8,63.5,76.6z"/>
		<path class="st2" d="M67.6,78.5V67.8h2.2v8.9H72v-8.9h2.2v8.9h2.3v-8.9h2.2v8.9h1v3.9h-2v-2.1L67.6,78.5z"/>
		<path class="st2" d="M82.5,67.8v6.9l2.6-6.9h2.3v10.7h-2.1v-6.9l-2.6,6.9h-2.3V67.8H82.5z"/>
		<path class="st2" d="M91.1,67.8v4.3l0,0l2.7-4.3h2.3l-2.9,4.6l3.2,6.1H94l-2.2-4.4L91,75.3v3.2h-2.2V67.8H91.1z"/>
		<path class="st2" d="M101.8,67.8l2.8,10.7h-2.3l-0.5-2.3H99l-0.5,2.3h-2.3L99,67.8H101.8z M100.4,69.7L100.4,69.7l-1.1,4.8h2.1
			L100.4,69.7z"/>
		<path class="st2" d="M108.6,67.8l1.5,7.6l0,0l1.5-7.6h3.2v10.7h-2V70l0,0l-1.9,8.5h-1.7l-1.9-8.5l0,0v8.5h-2V67.8H108.6z"/>
		<path class="st2" d="M121.1,78.6c-0.1,0-0.1,0-0.2,0s-0.1,0-0.2,0s-0.2,0-0.3,0V77c0.2,0,0.4,0,0.6,0c0.3,0,0.6-0.1,0.8-0.3
			c0.2-0.2,0.3-0.4,0.5-0.8l0.1-0.2l-2.9-7.8h2.4l1.6,5.3l1.5-5.3h2.3l-2.6,7.7c-0.2,0.6-0.4,1-0.5,1.4c-0.2,0.4-0.4,0.7-0.6,0.9
			c-0.2,0.2-0.5,0.4-0.8,0.5s-0.7,0.2-1.2,0.2L121.1,78.6z"/>
		<path class="st2" d="M129.3,78.3c-0.5-0.3-0.8-0.6-1.1-1.1c-0.3-0.5-0.4-1.1-0.5-1.7s-0.1-1.4-0.1-2.3c0-0.8,0-1.6,0.1-2.2
			c0.1-0.7,0.2-1.3,0.5-1.8c0.3-0.5,0.6-0.9,1.1-1.1c0.5-0.3,1.1-0.4,1.9-0.4c0.8,0,1.4,0.1,1.8,0.4s0.8,0.6,1,1s0.4,0.8,0.4,1.2
			c0.1,0.4,0.1,0.9,0.1,1.3h-2.2c0-0.8-0.1-1.3-0.3-1.7c-0.2-0.4-0.5-0.5-1-0.5c-0.3,0-0.5,0.1-0.7,0.2s-0.3,0.4-0.4,0.7
			c-0.1,0.3-0.2,0.8-0.2,1.3s-0.1,1.2-0.1,1.9c0,0.8,0,1.5,0.1,2s0.1,0.9,0.3,1.2c0.1,0.3,0.3,0.5,0.4,0.6c0.2,0.1,0.4,0.1,0.6,0.1
			c0.2,0,0.4,0,0.5-0.1c0.2-0.1,0.3-0.2,0.4-0.4c0.1-0.2,0.2-0.5,0.3-0.8c0.1-0.4,0.1-0.8,0.1-1.4h2.2c0,0.6,0,1.1-0.1,1.7
			s-0.3,1-0.5,1.3c-0.2,0.4-0.6,0.7-1,0.9c-0.4,0.2-1,0.3-1.7,0.3C130.5,78.7,129.8,78.5,129.3,78.3z"/>
		<path class="st2" d="M135.6,78.6c-0.2,0-0.3,0-0.4-0.1v-1.8c0,0,0.1,0,0.2,0c0.1,0,0.1,0,0.1,0c0.2,0,0.3,0,0.5,0
			c0.1,0,0.3-0.1,0.4-0.3c0.1-0.2,0.2-0.4,0.3-0.8s0.2-0.9,0.2-1.5c0.1-0.7,0.1-1.5,0.1-2.5s0-2.3,0-3.7h6.1v10.7h-2.2v-8.9H139
			c0,1.3,0,2.4-0.1,3.3c0,0.9-0.1,1.7-0.2,2.4s-0.2,1.2-0.3,1.6s-0.3,0.8-0.5,1s-0.5,0.4-0.8,0.5s-0.7,0.1-1.1,0.1
			C135.9,78.6,135.8,78.6,135.6,78.6z"/>
		<path class="st2" d="M145.6,78.6c-0.1,0-0.1,0-0.2,0c-0.1,0-0.1,0-0.2,0c-0.1,0-0.2,0-0.3,0V77c0.2,0,0.4,0,0.6,0
			c0.3,0,0.6-0.1,0.8-0.3c0.2-0.2,0.3-0.4,0.5-0.8l0.1-0.2l-2.9-7.8h2.4l1.6,5.3l1.5-5.3h2.3l-2.6,7.7c-0.2,0.6-0.4,1-0.5,1.4
			c-0.2,0.4-0.4,0.7-0.6,0.9c-0.2,0.2-0.5,0.4-0.8,0.5s-0.7,0.2-1.2,0.2L145.6,78.6z"/>
		<path class="st2" d="M158.2,67.8v1.8h-3.6v8.9h-2.2V67.8H158.2z"/>
	</g>
</g>
<g>
	<g>
		<path class="st3" d="M111.6,48.7H73.8V18.5c0-1.4-1.2-2.6-2.6-2.6h-5.4c-1.4,0-2.6,1.2-2.6,2.6s1.2,2.6,2.6,2.6h2.8v30.2
			c0,1.4,1.2,2.6,2.6,2.6H73c0,0.2-0.1,0.5-0.1,0.7c0,2.8,2.3,5.1,5.1,5.1c2.8,0,5.1-2.3,5.1-5.1c0-0.3,0-0.5-0.1-0.7h16
			c0,0.2-0.1,0.5-0.1,0.7c0,2.8,2.3,5.1,5.1,5.1c2.8,0,5.1-2.3,5.1-5.1c0-0.3,0-0.5-0.1-0.7h2.6c1.4,0,2.6-1.2,2.6-2.6
			C114.2,49.8,113,48.7,111.6,48.7z M78,56.2c-0.9,0-1.6-0.7-1.6-1.6S77.1,53,78,53s1.6,0.7,1.6,1.6S78.9,56.2,78,56.2z M104,56.2
			c-0.9,0-1.6-0.7-1.6-1.6s0.7-1.6,1.6-1.6s1.6,0.7,1.6,1.6S104.9,56.2,104,56.2z"/>
	</g>
	<g>
		<path class="st3" d="M111.6,9.3H79.8c-1,0-1.7,0.8-1.7,1.7v32.3c0,1,0.8,1.7,1.7,1.7h31.8c1,0,1.7-0.8,1.7-1.7V11
			C113.3,10.1,112.5,9.3,111.6,9.3z"/>
	</g>
</g>
</svg>
