<?xml version="1.0" encoding="utf-8"?>
<!-- Generator: Adobe Illustrator 21.1.0, SVG Export Plug-In . SVG Version: 6.00 Build 0)  -->
<svg version="1.1" id="Слой_1" xmlns="http://www.w3.org/2000/svg" xmlns:xlink="http://www.w3.org/1999/xlink" x="0px" y="0px"
	 viewBox="0 0 176 105" style="enable-background:new 0 0 176 105;" xml:space="preserve">
<style type="text/css">
	.st0{fill:#CFF5FF;}
	.st1{enable-background:new    ;}
	.st2{fill:#1667B9;}
	.st3{fill:#45C3E5;}
</style>
<polygon class="st0" points="175.5,104.5 0.5,104.5 0.5,30 30.6,0.5 175.5,0.5 "/>
<g class="st1">
	<path class="st2" d="M55.8,68.3V79h-2.2v-8.9h-2.5V79h-2.2V68.3H55.8z"/>
	<path class="st2" d="M62,68.3L64.9,79h-2.3l-0.5-2.3h-2.8L58.8,79h-2.3l2.8-10.7H62z M60.7,70.2L60.7,70.2l-1,4.8h2.1L60.7,70.2z"
		/>
	<path class="st2" d="M69.4,68.3c0.5,0,1,0.1,1.4,0.3c0.4,0.2,0.7,0.4,0.9,0.7c0.2,0.3,0.4,0.6,0.5,1s0.1,0.8,0.1,1.2
		c0,0.6-0.1,1-0.2,1.4c-0.2,0.4-0.4,0.7-0.7,1s-0.7,0.5-1.1,0.6s-0.9,0.2-1.4,0.2h-1.2V79h-2.2V68.3H69.4z M69.8,72.7
		c0.3-0.3,0.4-0.7,0.4-1.2s-0.1-1-0.3-1.2c-0.2-0.3-0.6-0.4-1.2-0.4h-0.9v3.3h1C69.2,73.1,69.5,73,69.8,72.7z"/>
	<path class="st2" d="M72.8,70.1v-1.8h6.8v1.8h-2.3V79h-2.2v-8.9H72.8z"/>
	<path class="st2" d="M82.8,68.3v4.1h2.5v-4.1h2.2V79h-2.2v-4.8h-2.5V79h-2.2V68.3H82.8z"/>
	<path class="st2" d="M94.9,68.3v1.8h-3.8v2.5h3.6v1.8h-3.6v2.9h4V79H89V68.3H94.9z"/>
	<path class="st2" d="M99.9,68.3c0.5,0,1,0.1,1.4,0.3c0.4,0.2,0.7,0.4,0.9,0.7c0.2,0.3,0.4,0.6,0.5,1s0.1,0.8,0.1,1.2
		c0,0.6-0.1,1-0.2,1.4c-0.2,0.4-0.4,0.7-0.7,1c-0.3,0.3-0.7,0.5-1.1,0.6s-0.9,0.2-1.4,0.2h-1.2V79H96V68.3H99.9z M100.3,72.7
		c0.3-0.3,0.4-0.7,0.4-1.2s-0.1-1-0.3-1.2c-0.2-0.3-0.6-0.4-1.2-0.4h-0.9v3.3h1C99.7,73.1,100.1,73,100.3,72.7z"/>
	<path class="st2" d="M105.4,78.8c-0.5-0.3-0.8-0.6-1.1-1.1s-0.4-1.1-0.5-1.7s-0.1-1.4-0.1-2.3c0-0.8,0-1.6,0.1-2.2
		c0.1-0.7,0.2-1.3,0.5-1.8s0.6-0.9,1.1-1.1c0.5-0.3,1.1-0.4,1.9-0.4s1.4,0.1,1.8,0.4s0.8,0.6,1,1s0.4,0.8,0.4,1.2
		c0.1,0.4,0.1,0.9,0.1,1.3h-2.2c0-0.8-0.1-1.3-0.3-1.7c-0.2-0.4-0.5-0.5-1-0.5c-0.3,0-0.5,0.1-0.7,0.2s-0.3,0.4-0.4,0.7
		c-0.1,0.3-0.2,0.8-0.2,1.3s-0.1,1.2-0.1,1.9c0,0.8,0,1.5,0.1,2s0.1,0.9,0.3,1.2c0.1,0.3,0.3,0.5,0.4,0.6c0.2,0.1,0.4,0.1,0.6,0.1
		s0.4,0,0.5-0.1c0.2-0.1,0.3-0.2,0.4-0.4c0.1-0.2,0.2-0.5,0.3-0.8c0.1-0.4,0.1-0.8,0.1-1.4h2.2c0,0.6,0,1.1-0.1,1.7s-0.3,1-0.5,1.3
		c-0.2,0.4-0.6,0.7-1,0.9c-0.4,0.2-1,0.3-1.7,0.3C106.6,79.2,105.9,79,105.4,78.8z"/>
	<path class="st2" d="M114.2,68.3v4.3l0,0l2.7-4.3h2.3l-2.9,4.6l3.2,6.1h-2.4l-2.2-4.4l-0.8,1.2V79H112V68.3H114.2z"/>
	<path class="st2" d="M124.8,68.3l2.8,10.7h-2.3l-0.5-2.3H122l-0.5,2.3h-2.3l2.8-10.7H124.8z M123.5,70.2L123.5,70.2l-1.1,4.8h2.1
		L123.5,70.2z"/>
	<path class="st2" d="M128.6,73.6c-0.3-0.5-0.5-1.2-0.5-2c0-0.6,0.1-1.1,0.2-1.5s0.4-0.8,0.7-1c0.3-0.3,0.7-0.5,1.1-0.6
		s0.9-0.2,1.4-0.2h3.5V79h-2.1v-4.1h-0.8l-2,4.1h-2.4l2.3-4.4C129.4,74.4,128.9,74.1,128.6,73.6z M132.9,69.9H132
		c-0.6,0-1,0.1-1.3,0.4s-0.4,0.7-0.4,1.3c0,0.6,0.1,1.1,0.4,1.3c0.3,0.2,0.7,0.4,1.3,0.4h0.9V69.9z"/>
	<path class="st2" d="M61,84.3V95h-2.2v-8.9h-2.5V95h-2.2V84.3H61z"/>
	<path class="st2" d="M66.2,84.3c0.5,0,1,0.1,1.4,0.3c0.4,0.2,0.7,0.4,0.9,0.7c0.2,0.3,0.4,0.6,0.5,1s0.1,0.8,0.1,1.2
		c0,0.6-0.1,1-0.2,1.4c-0.2,0.4-0.4,0.7-0.7,1s-0.7,0.5-1.1,0.6s-0.9,0.2-1.4,0.2h-1.2V95h-2.2V84.3H66.2z M66.6,88.7
		c0.3-0.3,0.4-0.7,0.4-1.2s-0.1-1-0.3-1.2c-0.2-0.3-0.6-0.4-1.2-0.4h-0.9v3.3h1C66,89.1,66.4,89,66.6,88.7z"/>
	<path class="st2" d="M71.7,94.8c-0.5-0.3-0.8-0.6-1.1-1.1c-0.3-0.5-0.4-1.1-0.5-1.7C70,91.3,70,90.6,70,89.7c0-0.8,0-1.6,0.1-2.2
		c0.1-0.7,0.2-1.3,0.5-1.8s0.6-0.9,1.1-1.1c0.5-0.3,1.1-0.4,1.9-0.4s1.5,0.1,1.9,0.4c0.5,0.3,0.8,0.7,1.1,1.1
		c0.3,0.5,0.4,1.1,0.5,1.8c0.1,0.7,0.1,1.4,0.1,2.2c0,0.8,0,1.6-0.1,2.3s-0.2,1.3-0.5,1.7c-0.3,0.5-0.6,0.9-1.1,1.1
		s-1.1,0.4-1.9,0.4S72.2,95,71.7,94.8z M74.4,93.4c0.2-0.1,0.3-0.4,0.4-0.7c0.1-0.3,0.2-0.7,0.2-1.2s0.1-1.1,0.1-1.8
		c0-0.7,0-1.3-0.1-1.8c0-0.5-0.1-0.9-0.2-1.2c-0.1-0.3-0.3-0.6-0.4-0.7c-0.2-0.1-0.5-0.2-0.8-0.2S73,85.9,72.8,86
		c-0.2,0.1-0.3,0.4-0.5,0.7c-0.1,0.3-0.2,0.7-0.2,1.2S72,89,72,89.7c0,0.7,0,1.3,0.1,1.8s0.1,0.9,0.2,1.2c0.1,0.3,0.3,0.5,0.5,0.7
		c0.2,0.1,0.5,0.2,0.8,0.2C74,93.6,74.3,93.5,74.4,93.4z"/>
	<path class="st2" d="M84.4,84.3v1.8h-3.6V95h-2.2V84.3H84.4z"/>
	<path class="st2" d="M89,84.3c0.5,0,1,0.1,1.4,0.3c0.4,0.2,0.7,0.4,0.9,0.7c0.2,0.3,0.4,0.6,0.5,1s0.2,0.8,0.2,1.2
		c0,0.6-0.1,1-0.2,1.4c-0.2,0.4-0.4,0.7-0.7,1s-0.7,0.5-1.1,0.6s-0.9,0.2-1.4,0.2h-1.2V95h-2.2V84.3H89z M89.4,88.7
		c0.3-0.3,0.4-0.7,0.4-1.2s-0.1-1-0.3-1.2c-0.2-0.3-0.6-0.4-1.2-0.4h-0.9v3.3h1C88.8,89.1,89.2,89,89.4,88.7z"/>
	<path class="st2" d="M97.2,84.3L100,95h-2.3l-0.5-2.3h-2.8L93.9,95h-2.3l2.8-10.7H97.2z M95.9,86.2L95.9,86.2L94.8,91h2.1
		L95.9,86.2z"/>
	<path class="st2" d="M104,84.3l1.5,7.6l0,0l1.5-7.6h3.2V95h-2v-8.5l0,0l-1.9,8.5h-1.7l-1.9-8.5l0,0V95h-2V84.3H104z"/>
	<path class="st2" d="M115.1,84.3l1.5,7.6l0,0l1.5-7.6h3.2V95h-2v-8.5l0,0l-1.9,8.5h-1.7l-1.9-8.5l0,0V95h-2V84.3H115.1z"/>
	<path class="st2" d="M127.7,84.3l2.8,10.7h-2.3l-0.5-2.3H125l-0.5,2.3h-2.3l2.8-10.7H127.7z M126.4,86.2L126.4,86.2l-1.1,4.8h2.1
		L126.4,86.2z"/>
</g>
<g>
	<path class="st3" d="M122.8,18.1v19.1c0,0-4.1,0.8-4.9,0.9c-0.8,0.1-3.5,1-5.4-0.9C109.6,34.4,99.1,24,99.1,24s-1.8-1.8-4.7-0.2
		c-2.7,1.4-6.6,3.5-8.2,4.3c-3.1,1.7-5.7-1-5.7-3c0-1.6,1-2.6,2.4-3.4c3.8-2.3,11.7-6.7,15-8.5c2-1.1,3.4-1.2,6.2,1.2
		c3.4,2.8,6.4,5.4,6.4,5.4s1,0.8,2.6,0.5C116.8,19.5,122.8,18.1,122.8,18.1z M81.2,50.5c0.5-1.3,0.3-2.8-0.6-3.8
		c-0.9-0.9-2.1-1.1-3.4-0.9c0.3-1.2,0.2-2.5-0.7-3.4c-0.9-0.9-2.1-1.1-3.4-0.9c0.3-1.2,0.2-2.5-0.7-3.4c-1.4-1.4-3.8-1.3-5.3,0.1
		c-1.6,1.5-2.5,4.2-1.2,5.8c1.4,1.6,3,0.6,4.2,0.3c-0.3,1.2-1.3,2.3-0.1,3.9c1.2,1.6,3,0.6,4.2,0.3c-0.3,1.2-1.3,2.4-0.1,3.9
		c1.2,1.5,3.2,0.7,4.5,0.3C78,54,76.9,55.4,78.3,57s4.6,0.8,6.1-0.6c1.6-1.5,1.7-3.9,0.3-5.3C83.8,50.3,82.4,50.1,81.2,50.5z
		 M109.7,40.5c-11.3-11.3-6-6-12.1-12.1c0,0-1.8-1.8-4.2-0.8c-1.7,0.7-3.9,1.8-5.5,2.5c-1.8,0.9-3.1,1.2-3.7,1.2
		c-3.5,0-6.3-2.8-6.3-6.3c0-2.3,1.2-4.2,3-5.3c2.5-1.7,8.3-4.8,8.3-4.8s-1.8-2.2-5.6-2.2c-3.9,0-11.9,5.3-11.9,5.3s-2.3,1.5-5.6,0.2
		L59.8,16v21.8c0,0,1.8,0.5,3.4,1.2c0.4-1,1-2,1.8-2.8c2.7-2.5,7.1-2.6,9.5-0.1c0.7,0.8,1.2,1.7,1.5,2.7c1,0.3,1.9,0.8,2.6,1.6
		s1.2,1.7,1.5,2.7c1,0.3,1.9,0.8,2.6,1.6c0.8,0.8,1.3,1.8,1.6,2.9c1,0.3,1.9,0.9,2.7,1.6c1.5,1.5,2,3.5,1.7,5.5l0,0
		c0,0,0.9,1,1.5,1.6c1.1,1.1,2.8,1.1,3.9,0s1.1-2.8,0-3.9c0,0-3.9-4.1-3.6-4.4c0.3-0.3,5.2,4.8,5.3,4.9c1.1,1.1,2.8,1.1,3.9,0
		s1.1-2.8,0-3.9c-0.1-0.1-0.3-0.3-0.4-0.3c0,0-4.9-4.3-4.5-4.7s6.4,5.3,6.4,5.3c1.1,1,2.8,1,3.8-0.1c1-1,1-2.6,0.1-3.7
		c0-0.1-4.6-4.8-4.2-5.2s4.9,4.3,4.9,4.3c1.1,1.1,2.8,1.1,3.9,0C110.8,43.4,110.8,41.7,109.7,40.5C109.8,40.6,109.8,40.5,109.7,40.5
		z"/>
</g>
</svg>
