<?xml version="1.0" encoding="utf-8"?>
<!-- Generator: Adobe Illustrator 21.1.0, SVG Export Plug-In . SVG Version: 6.00 Build 0)  -->
<svg version="1.1" id="Слой_1" xmlns="http://www.w3.org/2000/svg" xmlns:xlink="http://www.w3.org/1999/xlink" x="0px" y="0px"
	 viewBox="0 0 176 105" style="enable-background:new 0 0 176 105;" xml:space="preserve">
<style type="text/css">
	.st0{fill:#CFF5FF;}
	.st1{enable-background:new    ;}
	.st2{fill:#1667B9;}
	.st3{fill:#45C3E5;}
</style>
<polygon class="st0" points="175.5,104.5 0.5,104.5 0.5,30 30.6,0.5 175.5,0.5 "/>
<g class="st1">
	<path class="st2" d="M47.2,67.2V78H45v-9h-2.5v9h-2.2V67.2H47.2z"/>
	<path class="st2" d="M52.5,67.2c0.5,0,1,0.1,1.4,0.3c0.4,0.2,0.7,0.4,0.9,0.7c0.2,0.3,0.4,0.6,0.5,1s0.2,0.8,0.2,1.2
		c0,0.6-0.1,1-0.2,1.4c-0.2,0.4-0.4,0.7-0.7,1s-0.7,0.5-1.1,0.6s-0.9,0.2-1.4,0.2h-1.2V78h-2.2V67.2H52.5z M52.9,71.7
		c0.3-0.3,0.4-0.7,0.4-1.2s-0.1-0.9-0.3-1.2c-0.2-0.3-0.6-0.4-1.2-0.4h-0.9v3.3h1C52.3,72.1,52.6,72,52.9,71.7z"/>
	<path class="st2" d="M62.5,67.2V69h-3.8v2.5h3.6v1.8h-3.6v2.9h4V78h-6.1V67.2H62.5z"/>
	<path class="st2" d="M63.8,76.2c0.3-0.5,0.5-1,0.6-1.5s0.3-1,0.3-1.5c0.1-0.5,0.1-1,0.1-1.6c0-0.5,0-1.1,0-1.8v-2.6H71v8.9h1V80h-2
		v-2h-5v2.1h-2v-3.9H63.8z M69,69h-2v1.7c0,0.4,0,0.9,0,1.3c0,0.5-0.1,1-0.1,1.4c-0.1,0.5-0.1,0.9-0.2,1.4s-0.2,0.9-0.4,1.2H69V69z"
		/>
	<path class="st2" d="M74.5,77.7c-0.5-0.3-0.8-0.6-1.1-1.1s-0.4-1.1-0.5-1.7s-0.1-1.4-0.1-2.3c0-0.8,0-1.6,0.1-2.2
		c0.1-0.7,0.2-1.3,0.5-1.8s0.6-0.9,1.1-1.1c0.5-0.3,1.1-0.4,1.9-0.4s1.4,0.1,1.8,0.4s0.8,0.6,1,1s0.4,0.8,0.4,1.2
		c0.1,0.4,0.1,0.9,0.1,1.3h-2.2c0-0.8-0.1-1.3-0.3-1.7c-0.2-0.4-0.5-0.5-1-0.5c-0.3,0-0.5,0.1-0.7,0.2s-0.3,0.4-0.4,0.7
		C75,70,74.9,70.5,74.9,71s-0.1,1.2-0.1,1.9c0,0.8,0,1.5,0.1,2s0.1,0.9,0.3,1.2c0.1,0.3,0.3,0.5,0.4,0.6c0.2,0.1,0.4,0.1,0.6,0.1
		s0.4,0,0.5-0.1c0.2-0.1,0.3-0.2,0.4-0.4c0.1-0.2,0.2-0.5,0.3-0.8c0.1-0.4,0.1-0.8,0.1-1.4h2.2c0,0.6,0,1.1-0.1,1.7s-0.3,1-0.5,1.3
		c-0.2,0.4-0.6,0.7-1,0.9c-0.4,0.2-1,0.3-1.7,0.3C75.6,78.1,75,78,74.5,77.7z"/>
	<path class="st2" d="M87.1,67.2V69h-3.8v2.5h3.6v1.8h-3.6v2.9h4V78h-6.1V67.2H87.1z"/>
	<path class="st2" d="M88.4,76.2c0.3-0.5,0.5-1,0.6-1.5s0.3-1,0.3-1.5c0.1-0.5,0.1-1,0.1-1.6c0-0.5,0-1.1,0-1.8v-2.6h6.2v8.9h1V80
		h-2v-2h-5.1v2.1h-2v-3.9H88.4z M93.6,69h-2v1.7c0,0.4,0,0.9,0,1.3c0,0.5-0.1,1-0.1,1.4c-0.1,0.5-0.1,0.9-0.2,1.4s-0.2,0.9-0.4,1.2
		h2.8v-7H93.6z"/>
	<path class="st2" d="M102.3,67.2l2.8,10.7h-2.3l-0.5-2.3h-2.8L99.1,78h-2.3l2.8-10.7h2.7V67.2z M101,69.1L101,69.1l-1.1,4.8h2.1
		L101,69.1z"/>
	<path class="st2" d="M105.3,69v-1.8h6.8V69h-2.3v9h-2.2v-9H105.3z"/>
	<path class="st2" d="M119.1,67.2V69h-3.8v2.5h3.6v1.8h-3.6v2.9h4V78h-6.1V67.2H119.1z"/>
	<path class="st2" d="M120,78c-0.2,0-0.3,0-0.4-0.1v-1.8c0,0,0.1,0,0.2,0s0.1,0,0.1,0c0.2,0,0.3,0,0.5,0c0.1,0,0.3-0.1,0.4-0.3
		c0.1-0.2,0.2-0.4,0.3-0.8c0.1-0.4,0.2-0.9,0.2-1.5c0.1-0.7,0.1-1.5,0.1-2.5s0-2.3,0-3.7h6.1V78h-2.2v-9h-1.9c0,1.3,0,2.4-0.1,3.3
		s-0.1,1.7-0.2,2.4s-0.2,1.2-0.3,1.6c-0.1,0.4-0.3,0.8-0.5,1s-0.5,0.4-0.8,0.5s-0.7,0.1-1.1,0.1C120.4,78,120.2,78,120,78z"/>
	<path class="st2" d="M134.2,77.8c-0.5-0.2-0.8-0.6-1.1-1s-0.4-0.9-0.5-1.5s-0.2-1.3-0.2-2h-1.2V78H129V67.2h2.2v4.2h1.2
		c0-0.6,0.1-1.2,0.2-1.8c0.1-0.5,0.3-1,0.6-1.4s0.6-0.7,1.1-0.9s1-0.3,1.7-0.3c0.8,0,1.5,0.1,1.9,0.4c0.5,0.3,0.8,0.7,1.1,1.1
		c0.3,0.5,0.4,1.1,0.5,1.8c0.1,0.7,0.1,1.4,0.1,2.2c0,0.8,0,1.6-0.1,2.3c-0.1,0.7-0.2,1.3-0.5,1.7c-0.3,0.5-0.6,0.9-1.1,1.1
		c-0.5,0.3-1.1,0.4-1.9,0.4C135.3,78.1,134.7,78,134.2,77.8z M136.8,76.4c0.2-0.1,0.3-0.4,0.5-0.7c0.1-0.3,0.2-0.7,0.2-1.2
		s0.1-1.1,0.1-1.8c0-0.7,0-1.3-0.1-1.8c0-0.5-0.1-0.9-0.2-1.2c-0.1-0.3-0.3-0.6-0.5-0.7s-0.5-0.2-0.8-0.2s-0.6,0.1-0.8,0.2
		s-0.3,0.4-0.5,0.7c-0.1,0.3-0.2,0.7-0.2,1.2s-0.1,1.1-0.1,1.8s0,1.3,0.1,1.8c0,0.5,0.1,0.9,0.2,1.2c0.1,0.3,0.3,0.5,0.5,0.7
		c0.2,0.1,0.5,0.2,0.8,0.2C136.4,76.6,136.6,76.5,136.8,76.4z"/>
</g>
<g class="st1">
	<path class="st2" d="M56.4,85v-1.8h6.8V85h-2.3v9h-2.2v-9H56.4z"/>
	<path class="st2" d="M65.7,93.7c-0.5-0.3-0.8-0.6-1.1-1.1s-0.4-1.1-0.5-1.7S64,89.4,64,88.6s0-1.6,0.1-2.2c0.1-0.7,0.2-1.3,0.5-1.8
		s0.6-0.9,1.1-1.1c0.5-0.3,1.1-0.4,1.9-0.4s1.4,0.1,1.8,0.4s0.8,0.6,1,1s0.4,0.8,0.4,1.2c0.1,0.4,0.1,0.9,0.1,1.3h-2.2
		c0-0.8-0.1-1.3-0.3-1.7c-0.2-0.4-0.5-0.5-1-0.5c-0.3,0-0.5,0.1-0.7,0.2s-0.3,0.4-0.4,0.7c-0.1,0.3-0.2,0.8-0.2,1.3S66,88.2,66,88.9
		c0,0.8,0,1.5,0.1,2s0.1,0.9,0.3,1.2c0.1,0.3,0.3,0.5,0.4,0.6c0.2,0.1,0.4,0.1,0.6,0.1s0.4,0,0.5-0.1c0.2-0.1,0.3-0.2,0.4-0.4
		c0.1-0.2,0.2-0.5,0.3-0.8c0.1-0.4,0.1-0.8,0.1-1.4H71c0,0.6,0,1.1-0.1,1.7s-0.3,1-0.5,1.3c-0.2,0.4-0.6,0.7-1,0.9
		c-0.4,0.2-1,0.3-1.7,0.3C66.8,94.1,66.2,94,65.7,93.7z"/>
	<path class="st2" d="M71.6,83.2h2.2l2.5,4.4v-4.4h2.1v4.4l2.5-4.4h2.2l-2.7,4.5l3,6.2h-2.3l-2-4.3L78.5,91v3h-2.1v-3l-0.8-1.3
		l-2,4.3h-2.3l3-6.2L71.6,83.2z"/>
	<path class="st2" d="M90.3,83H92l-3.4,11.1H87L90.3,83z"/>
	<path class="st2" d="M95.7,83.2h2.2l2.5,4.4v-4.4h2.1v4.4l2.5-4.4h2.2l-2.7,4.5l3,6.2h-2.3l-2-4.3l-0.8,1.3v3h-2.1v-3l-0.8-1.3
		l-2,4.3h-2.3l3-6.2L95.7,83.2z"/>
	<path class="st2" d="M109.7,93.7c-0.5-0.3-0.8-0.6-1.1-1.1s-0.4-1.1-0.5-1.7s-0.1-1.4-0.1-2.3c0-0.8,0-1.6,0.1-2.2
		c0.1-0.7,0.2-1.3,0.5-1.8s0.6-0.9,1.1-1.1c0.5-0.3,1.1-0.4,1.9-0.4s1.4,0.1,1.8,0.4s0.8,0.6,1,1s0.4,0.8,0.4,1.2
		c0.1,0.4,0.1,0.9,0.1,1.3h-2.2c0-0.8-0.1-1.3-0.3-1.7c-0.2-0.4-0.5-0.5-1-0.5c-0.3,0-0.5,0.1-0.7,0.2s-0.3,0.4-0.4,0.7
		c-0.1,0.3-0.2,0.8-0.2,1.3s-0.1,1.2-0.1,1.9c0,0.8,0,1.5,0.1,2s0.1,0.9,0.3,1.2c0.1,0.3,0.3,0.5,0.4,0.6c0.2,0.1,0.4,0.1,0.6,0.1
		s0.4,0,0.5-0.1c0.2-0.1,0.3-0.2,0.4-0.4c0.1-0.2,0.2-0.5,0.3-0.8c0.1-0.4,0.1-0.8,0.1-1.4h2.2c0,0.6,0,1.1-0.1,1.7s-0.3,1-0.5,1.3
		c-0.2,0.4-0.6,0.7-1,0.9c-0.4,0.2-1,0.3-1.7,0.3C110.8,94.1,110.2,94,109.7,93.7z"/>
	<path class="st2" d="M118.4,83.2v4.3l0,0l2.7-4.3h2.3l-2.9,4.6l3.2,6.1h-2.4l-2.2-4.4l-0.8,1.2V94h-2.2V83.2H118.4z"/>
</g>
<g>
	<g>
		<rect x="86.3" y="37.7" class="st3" width="4.5" height="4.5"/>
	</g>
</g>
<g>
	<g>
		<path class="st3" d="M110.8,19.4H98.3v-6.7c0-1.2-1-2.2-2.2-2.2H81.2c-1.2,0-2.2,1-2.2,2.2v6.7H66.3c-1.2,0-2.2,1-2.2,2.2V29
			l2.2,0.6l2.2,0.6l15.9,4h8.4l15.9-4l2.2-0.6l2.2-0.6v-7.5C113.2,20.4,112.2,19.4,110.8,19.4z M93.8,19.4H83.4V15h10.4V19.4z"/>
	</g>
</g>
<g>
	<g>
		<path class="st3" d="M110.8,34.3l-2.2,0.6l-13.4,3.3v7.2c0,1.2-1,2.2-2.2,2.2h-8.9c-1.2,0-2.2-1-2.2-2.2v-7.2l-13.4-3.3l-2.2-0.6
			l-2.2-0.6v23.5c0,1.2,1,2.2,2.2,2.2h44.5c1.2,0,2.2-1,2.2-2.2V33.8L110.8,34.3z"/>
	</g>
</g>
</svg>
