<?xml version="1.0" encoding="utf-8"?>
<!-- Generator: Adobe Illustrator 21.1.0, SVG Export Plug-In . SVG Version: 6.00 Build 0)  -->
<svg version="1.1" id="Слой_1" xmlns="http://www.w3.org/2000/svg" xmlns:xlink="http://www.w3.org/1999/xlink" x="0px" y="0px"
	 viewBox="0 0 14 14" style="enable-background:new 0 0 14 14;" xml:space="preserve">
<style type="text/css">
	.st0{fill:#0065A7;}
</style>
<g transform="translate(1)">
	<g>
		<g>
			<path class="st0" d="M12.8,12.6c0-0.1,0-0.1-0.1-0.2l-1-0.7L7.6,7.7L8,7.3C8,7.3,8,7.3,8,7.2C8,7.1,8,7.1,8,7L7.4,6.5L8,5.8
				c0.2,0.1,0.4,0.2,0.5,0.2c0.1,0,0.2,0,0.3,0c0.2,0,0.2,0,0.4,0.2C9.2,6.2,9.2,6.3,9.2,6.4c0,0.1,0,0.3,0.1,0.3l0.8,0.8
				c0.1,0.1,0.3,0.2,0.5,0.2s0.4-0.1,0.5-0.2l1.7-1.7C12.9,5.8,13,5.6,13,5.4s-0.1-0.3-0.2-0.5L12,4.1C11.9,4,11.7,4,11.6,4
				s-0.2,0.1-0.3,0.1c-0.2-0.2-0.2-0.2-0.2-0.4c0-0.1,0-0.2,0-0.3c0-0.3-0.2-0.7-0.5-0.9L9.8,1.6C9.3,1.1,9,0.9,8.4,0.6
				C7.1,0,5.7,0.1,3.7,1c-0.1,0-0.2,0.1-0.1,0.3c0,0.1,0.1,0.2,0.2,0.2h0.3c1,0,1.6,0,2.5,0.9C7,2.8,7,3.4,6.6,3.9
				c0,0-0.1,0-0.1,0.1L5.8,4.8L1.3,0.3c-0.4-0.4-1-0.4-1.4,0l-0.6,0.6C-0.9,1.1-1,1.3-1,1.6s0.1,0.5,0.3,0.7l4.6,4.6L-0.7,12
				C-0.9,12.2-1,12.5-1,12.7c0,0.3,0.1,0.5,0.3,0.7l0.3,0.3C-0.2,13.9,0,14,0.3,14s0.5-0.1,0.7-0.3l4.6-5.2L6,9c0,0,0.1,0.1,0.2,0.1
				c0.1,0,0.1,0,0.1,0l0.3-0.3l4.1,4.1l0.7,1c0,0,0.1,0.1,0.2,0.1l1.1,0.1h0c0.1,0,0.1,0,0.2,0c0,0,0.1-0.1,0.1-0.2L12.8,12.6z
				 M6.9,2c-0.7-0.7-1.3-1-1.9-1c1.3-0.4,2.3-0.4,3.3,0C8.8,1.3,9,1.5,9.5,2l0.8,0.8c0.2,0.2,0.3,0.4,0.3,0.7c0,0.1,0,0.2,0,0.3
				c0,0.3,0,0.4,0.3,0.7c0.1,0.1,0.2,0.1,0.3,0.1c0.1,0,0.3,0,0.3-0.1l0.8,0.8c0,0,0.1,0.1,0.1,0.2s0,0.1-0.1,0.2l-1.7,1.7
				c-0.1,0.1-0.2,0.1-0.3,0L9.6,6.4c0.1-0.1,0.1-0.2,0.1-0.3c0-0.1,0-0.3-0.1-0.3C9.3,5.5,9.2,5.5,8.9,5.5c-0.1,0-0.2,0-0.3,0
				C8.4,5.4,8.2,5.3,8,5.1l-1-1C7.5,3.5,7.4,2.6,6.9,2z M-0.4,1.9c-0.1-0.1-0.1-0.2-0.1-0.3s0-0.3,0.1-0.3l0.6-0.6
				c0.1-0.1,0.2-0.1,0.3-0.1s0.3,0,0.3,0.1l4.5,4.5L5.1,5.5l-0.9,1L-0.4,1.9z M0.6,13.4c-0.1,0.1-0.2,0.1-0.3,0.1
				c-0.1,0-0.2,0-0.3-0.1l-0.3-0.3c-0.1-0.1-0.1-0.2-0.1-0.3c0-0.1,0-0.3,0.2-0.4l7-7.9l1,1L7,6.3c0,0,0,0-0.1,0L5.4,8
				c0,0,0,0,0,0.1L0.6,13.4z M6.2,8.5L5.9,8.2l0.5-0.5l0.8-0.8l0.4,0.4L6.2,8.5z M7.3,8l3.9,3.9l-0.3,0.3L7,8.3L7.3,8z M11.8,13.4
				l-0.5-0.8l0.4-0.4l0.8,0.5l0.1,0.7L11.8,13.4z"/>
			<path class="st0" d="M4.5,5.2l-4-4c-0.1-0.1-0.2-0.1-0.3,0c-0.1,0.1-0.1,0.2,0,0.3l4,4c0,0,0.1,0.1,0.2,0.1c0.1,0,0.1,0,0.2-0.1
				C4.6,5.4,4.6,5.3,4.5,5.2z"/>
		</g>
	</g>
</g>
</svg>
