<?xml version="1.0" encoding="utf-8"?>
<!-- Generator: Adobe Illustrator 21.1.0, SVG Export Plug-In . SVG Version: 6.00 Build 0)  -->
<svg version="1.1" id="Слой_1" xmlns="http://www.w3.org/2000/svg" xmlns:xlink="http://www.w3.org/1999/xlink" x="0px" y="0px"
	 viewBox="0 0 14 14" style="enable-background:new 0 0 14 14;" xml:space="preserve">
<style type="text/css">
	.st0{fill:#0065A7;}
</style>
<g>
	<path class="st0" d="M12.4,13.4h-0.3V2.6c0-0.2-0.1-0.3-0.3-0.3H7.6c-0.2,0-0.3,0.1-0.3,0.3v10.8H6.9v-12c0-0.1-0.1-0.2-0.2-0.3
		C6.6,1,6.5,1,6.4,1.1L5.8,1.4V0.3C5.8,0.1,5.6,0,5.4,0C5.3,0,5.1,0.1,5.1,0.3v1.4L4.2,2.1C4.1,2.2,4,2.3,4,2.4v1.8L2.3,5.4
		C2.2,5.4,2.1,5.5,2.1,5.6v7.7H1.6c-0.2,0-0.3,0.1-0.3,0.3c0,0.2,0.1,0.3,0.3,0.3h0.8h4.1h1.1h4.1h0.6c0.2,0,0.3-0.1,0.3-0.3
		C12.7,13.5,12.5,13.4,12.4,13.4z M11.5,2.9v3.9c0,0,0,0,0,0H8c0,0,0,0,0,0V2.9H11.5z M2.8,13.4V5.8l1.8-1.1
		c0.1-0.1,0.2-0.2,0.2-0.3V2.6l1.6-0.8v11.5H2.8z M10,13.4v-0.4c0-0.2-0.1-0.3-0.3-0.3c-0.2,0-0.3,0.1-0.3,0.3v0.4H8V7.4
		c0,0,0,0,0,0h3.4c0,0,0,0,0,0v5.9H10z"/>
	<path class="st0" d="M3.8,7.1c-0.2,0-0.3,0.1-0.3,0.3v0.4c0,0.2,0.1,0.3,0.3,0.3c0.2,0,0.3-0.1,0.3-0.3V7.5C4.1,7.3,4,7.1,3.8,7.1z
		"/>
	<path class="st0" d="M5.2,7.1C5,7.1,4.8,7.3,4.8,7.5v0.4c0,0.2,0.1,0.3,0.3,0.3s0.3-0.1,0.3-0.3V7.5C5.5,7.3,5.3,7.1,5.2,7.1z"/>
	<path class="st0" d="M3.8,8.5c-0.2,0-0.3,0.1-0.3,0.3v0.4c0,0.2,0.1,0.3,0.3,0.3c0.2,0,0.3-0.1,0.3-0.3V8.9C4.1,8.7,4,8.5,3.8,8.5z
		"/>
	<path class="st0" d="M5.2,8.5C5,8.5,4.8,8.7,4.8,8.9v0.4c0,0.2,0.1,0.3,0.3,0.3s0.3-0.1,0.3-0.3V8.9C5.5,8.7,5.3,8.5,5.2,8.5z"/>
	<path class="st0" d="M3.8,9.9c-0.2,0-0.3,0.1-0.3,0.3v0.4c0,0.2,0.1,0.3,0.3,0.3c0.2,0,0.3-0.1,0.3-0.3v-0.4
		C4.1,10.1,4,9.9,3.8,9.9z"/>
	<path class="st0" d="M5.2,9.9c-0.2,0-0.3,0.1-0.3,0.3v0.4C4.8,10.8,5,11,5.2,11s0.3-0.1,0.3-0.3v-0.4C5.5,10.1,5.3,9.9,5.2,9.9z"/>
	<path class="st0" d="M3.8,11.3c-0.2,0-0.3,0.1-0.3,0.3v0.4c0,0.2,0.1,0.3,0.3,0.3c0.2,0,0.3-0.1,0.3-0.3v-0.4
		C4.1,11.5,4,11.3,3.8,11.3z"/>
	<path class="st0" d="M5.2,11.3c-0.2,0-0.3,0.1-0.3,0.3v0.4c0,0.2,0.1,0.3,0.3,0.3s0.3-0.1,0.3-0.3v-0.4C5.5,11.5,5.3,11.3,5.2,11.3
		z"/>
	<path class="st0" d="M9,9.9c-0.2,0-0.3,0.1-0.3,0.3v0.4C8.7,10.8,8.9,11,9,11c0.2,0,0.3-0.1,0.3-0.3v-0.4C9.4,10.1,9.2,9.9,9,9.9z"
		/>
	<path class="st0" d="M10.4,9.9c-0.2,0-0.3,0.1-0.3,0.3v0.4c0,0.2,0.1,0.3,0.3,0.3c0.2,0,0.3-0.1,0.3-0.3v-0.4
		C10.7,10.1,10.6,9.9,10.4,9.9z"/>
	<path class="st0" d="M9,8.3c-0.2,0-0.3,0.1-0.3,0.3v0.4c0,0.2,0.1,0.3,0.3,0.3c0.2,0,0.3-0.1,0.3-0.3V8.7C9.4,8.5,9.2,8.3,9,8.3z"
		/>
	<path class="st0" d="M10.4,8.3c-0.2,0-0.3,0.1-0.3,0.3v0.4c0,0.2,0.1,0.3,0.3,0.3c0.2,0,0.3-0.1,0.3-0.3V8.7
		C10.7,8.5,10.6,8.3,10.4,8.3z"/>
	<path class="st0" d="M9,6.1c0.2,0,0.3-0.1,0.3-0.3V5.4c0-0.2-0.1-0.3-0.3-0.3c-0.2,0-0.3,0.1-0.3,0.3v0.4C8.7,6,8.9,6.1,9,6.1z"/>
	<path class="st0" d="M10.4,6.1c0.2,0,0.3-0.1,0.3-0.3V5.4c0-0.2-0.1-0.3-0.3-0.3c-0.2,0-0.3,0.1-0.3,0.3v0.4
		C10.1,6,10.2,6.1,10.4,6.1z"/>
	<path class="st0" d="M9,4.6c0.2,0,0.3-0.1,0.3-0.3V3.8c0-0.2-0.1-0.3-0.3-0.3c-0.2,0-0.3,0.1-0.3,0.3v0.4C8.7,4.4,8.9,4.6,9,4.6z"
		/>
	<path class="st0" d="M10.4,4.6c0.2,0,0.3-0.1,0.3-0.3V3.8c0-0.2-0.1-0.3-0.3-0.3c-0.2,0-0.3,0.1-0.3,0.3v0.4
		C10.1,4.4,10.2,4.6,10.4,4.6z"/>
</g>
</svg>
