<?xml version="1.0" encoding="utf-8"?>
<!-- Generator: Adobe Illustrator 21.1.0, SVG Export Plug-In . SVG Version: 6.00 Build 0)  -->
<svg version="1.1" id="Слой_1" xmlns="http://www.w3.org/2000/svg" xmlns:xlink="http://www.w3.org/1999/xlink" x="0px" y="0px"
	 viewBox="0 0 14 14" style="enable-background:new 0 0 14 14;" xml:space="preserve">
<style type="text/css">
	.st0{fill:#0065A7;}
</style>
<g>
	<path class="st0" d="M3.3,8.6h3.3V6.3H3.3V8.6z M3.7,8.2V7.5h2.3v0.7H3.7z M6.1,6.8V7H3.7V6.8H6.1z"/>
	<path class="st0" d="M3.3,9.6v2.8h3.3V9.6H3.3z M4.7,10v0.7H3.7V10H4.7z M3.7,11.2h0.9v0.7H3.7V11.2z M5.1,11.9v-0.7h0.9v0.7H5.1z
		 M6.1,10.7H5.1V10h0.9V10.7z"/>
	<path class="st0" d="M7.5,8.6h3.3V6.3H7.5V8.6z M7.9,8.2V7.9h2.3v0.2H7.9z M10.3,6.8v0.7H7.9V6.8H10.3z"/>
	<path class="st0" d="M13.8,11.4c-0.1,0-0.2,0.1-0.2,0.2v0.2h-0.2v-0.2c0-0.1-0.1-0.2-0.2-0.2s-0.2,0.1-0.2,0.2v0.2h-0.2V7.2
		c0.1,0.1,0.3,0.1,0.4,0.1c0.3,0,0.5-0.1,0.7-0.3c0.2-0.2,0.3-0.4,0.2-0.7c0-0.3-0.2-0.5-0.4-0.7L7.6,1L7,0.4L6.4,1L0.4,5.6
		C0.2,5.8,0.1,6,0.1,6.3c0,0.3,0.1,0.5,0.2,0.7C0.6,7.3,1,7.3,1.4,7.2v4.7H1.2v-0.2c0-0.1-0.1-0.2-0.2-0.2s-0.2,0.1-0.2,0.2v0.2H0.5
		v-0.2c0-0.1-0.1-0.2-0.2-0.2S0,11.5,0,11.7v2.1C0,13.9,0.1,14,0.2,14s0.2-0.1,0.2-0.2v-0.2h0.2v0.2c0,0.1,0.1,0.2,0.2,0.2
		s0.2-0.1,0.2-0.2v-0.2h0.2V14h6.1h3.3h1.9v-0.5h0.2v0.2c0,0.1,0.1,0.2,0.2,0.2s0.2-0.1,0.2-0.2v-0.2h0.2v0.2c0,0.1,0.1,0.2,0.2,0.2
		c0.1,0,0.2-0.1,0.2-0.2v-2.1C14,11.5,13.9,11.4,13.8,11.4z M0.7,6.7C0.6,6.6,0.5,6.4,0.6,6.3C0.6,6.2,0.6,6,0.7,6l5.9-4.7L7,1
		l0.3,0.3L13.3,6c0.1,0.1,0.2,0.2,0.2,0.3s0,0.3-0.1,0.4c-0.2,0.2-0.4,0.2-0.6,0.1l-0.1-0.1l0,0L7,2.3L1.5,6.6l0,0L1.3,6.7
		C1.1,6.9,0.8,6.8,0.7,6.7z M0.5,13.1v-0.7h0.2v0.7H0.5z M1.2,13.1v-0.7h0.2v0.7H1.2z M7.9,13.5V10h2.3v3.5H7.9z M12.1,13.5h-1.4v-4
		H7.5v4H1.9V6.9l5.1-4l5.1,4V13.5z M12.6,13.1v-0.7h0.2v0.7H12.6z M13.3,13.1v-0.7h0.2v0.7H13.3z"/>
</g>
</svg>
