<?xml version="1.0" encoding="iso-8859-1"?>
<!-- Generator: Adobe Illustrator 21.0.1, SVG Export Plug-In . SVG Version: 6.00 Build 0)  -->
<svg version="1.1" id="&#x421;&#x43B;&#x43E;&#x439;_1"
	 xmlns="http://www.w3.org/2000/svg" xmlns:xlink="http://www.w3.org/1999/xlink" x="0px" y="0px" viewBox="0 0 254.988 23.309"
	 style="enable-background:new 0 0 254.988 23.309;" xml:space="preserve">
<g>
	<path d="M2.484,3.07H0V0.785h2.484V3.07z M2.344,18.352H0.141V5.262h2.203V18.352z"/>
	<path d="M17.648,18.352h-2.203v-7.453c0-0.602-0.035-1.166-0.105-1.693s-0.199-0.939-0.387-1.236
		c-0.195-0.328-0.477-0.572-0.844-0.732s-0.844-0.24-1.43-0.24c-0.602,0-1.23,0.148-1.887,0.445S9.508,8.117,8.906,8.578v9.773
		H6.703V5.262h2.203v1.453c0.688-0.57,1.398-1.016,2.133-1.336s1.488-0.48,2.262-0.48c1.414,0,2.492,0.426,3.234,1.277
		s1.113,2.078,1.113,3.68V18.352z"/>
	<path d="M28.934,2.25h-0.117c-0.242-0.07-0.559-0.143-0.949-0.217s-0.734-0.111-1.031-0.111c-0.945,0-1.631,0.209-2.057,0.627
		s-0.639,1.174-0.639,2.268v0.445h3.973v1.852h-3.902v11.238h-2.203V7.113H20.52V5.262h1.488V4.828c0-1.555,0.387-2.748,1.16-3.58
		S25.059,0,26.52,0c0.492,0,0.936,0.023,1.33,0.07s0.756,0.102,1.084,0.164V2.25z"/>
	<path d="M41.484,11.813c0,2.133-0.547,3.816-1.641,5.051s-2.559,1.852-4.395,1.852c-1.852,0-3.322-0.617-4.412-1.852
		s-1.635-2.918-1.635-5.051s0.545-3.818,1.635-5.057s2.561-1.857,4.412-1.857c1.836,0,3.301,0.619,4.395,1.857
		S41.484,9.68,41.484,11.813z M39.211,11.813c0-1.695-0.332-2.955-0.996-3.779s-1.586-1.236-2.766-1.236
		c-1.195,0-2.123,0.412-2.783,1.236s-0.99,2.084-0.99,3.779c0,1.641,0.332,2.885,0.996,3.732s1.59,1.271,2.777,1.271
		c1.172,0,2.092-0.42,2.76-1.26S39.211,13.469,39.211,11.813z"/>
	<path d="M64.641,10.582c0,1.086-0.158,2.137-0.475,3.152s-0.768,1.941-1.354,2.777h-5.156l-0.316-1.359
		c-0.578,0.469-1.133,0.828-1.664,1.078s-1.141,0.375-1.828,0.375c-1.313,0-2.361-0.496-3.146-1.488s-1.178-2.379-1.178-4.16
		c0-1.773,0.48-3.188,1.441-4.242s2.109-1.582,3.445-1.582c0.57,0,1.074,0.064,1.512,0.193s0.91,0.322,1.418,0.58V5.344h1.863v9.867
		h2.848c0.328-0.586,0.576-1.318,0.744-2.197s0.252-1.666,0.252-2.361c0-1.281-0.178-2.445-0.533-3.492s-0.877-1.945-1.564-2.695
		s-1.539-1.326-2.555-1.729s-2.168-0.604-3.457-0.604c-1.25,0-2.393,0.227-3.428,0.68s-1.924,1.063-2.666,1.828
		c-0.75,0.766-1.338,1.682-1.764,2.748s-0.639,2.201-0.639,3.404c0,1.289,0.203,2.467,0.609,3.533s0.98,1.979,1.723,2.736
		c0.773,0.789,1.68,1.385,2.719,1.787s2.172,0.604,3.398,0.604c0.672,0,1.365-0.043,2.08-0.129s1.4-0.223,2.057-0.41v1.664
		c-0.758,0.164-1.465,0.275-2.121,0.334S55.574,21,54.879,21c-1.453,0-2.801-0.248-4.043-0.744s-2.309-1.189-3.199-2.08
		c-0.898-0.898-1.598-1.977-2.098-3.234s-0.75-2.648-0.75-4.172c0-1.445,0.262-2.791,0.785-4.037s1.238-2.326,2.145-3.24
		s1.98-1.633,3.223-2.156s2.57-0.785,3.984-0.785c1.531,0,2.898,0.242,4.102,0.727s2.219,1.164,3.047,2.039s1.463,1.928,1.904,3.158
		S64.641,9.074,64.641,10.582z M57.316,13.57V7.5c-0.492-0.227-0.934-0.389-1.324-0.486s-0.809-0.146-1.254-0.146
		c-1.008,0-1.797,0.352-2.367,1.055s-0.855,1.703-0.855,3c0,1.273,0.227,2.236,0.68,2.889s1.16,0.979,2.121,0.979
		c0.523,0,1.047-0.121,1.57-0.363S56.887,13.898,57.316,13.57z"/>
	<path d="M80.215,5.262l-5.297,13.09h-2.215l-5.262-13.09h2.391l4.055,10.418l4.02-10.418H80.215z"/>
	<path d="M92.801,18.352h-2.191v-1.395c-0.195,0.133-0.459,0.318-0.791,0.557s-0.654,0.428-0.967,0.568
		c-0.367,0.18-0.789,0.33-1.266,0.451s-1.035,0.182-1.676,0.182c-1.18,0-2.18-0.391-3-1.172s-1.23-1.777-1.23-2.988
		c0-0.992,0.213-1.795,0.639-2.408s1.033-1.096,1.822-1.447c0.797-0.352,1.754-0.59,2.871-0.715s2.316-0.219,3.598-0.281v-0.34
		c0-0.5-0.088-0.914-0.264-1.242s-0.428-0.586-0.756-0.773c-0.313-0.18-0.688-0.301-1.125-0.363s-0.895-0.094-1.371-0.094
		c-0.578,0-1.223,0.076-1.934,0.229s-1.445,0.373-2.203,0.662H82.84V5.543c0.43-0.117,1.051-0.246,1.863-0.387
		s1.613-0.211,2.402-0.211c0.922,0,1.725,0.076,2.408,0.229s1.275,0.412,1.775,0.779c0.492,0.359,0.867,0.824,1.125,1.395
		s0.387,1.277,0.387,2.121V18.352z M90.609,15.129v-3.645c-0.672,0.039-1.463,0.098-2.373,0.176s-1.631,0.191-2.162,0.34
		c-0.633,0.18-1.145,0.459-1.535,0.838s-0.586,0.9-0.586,1.564c0,0.75,0.227,1.314,0.68,1.693s1.145,0.568,2.074,0.568
		c0.773,0,1.48-0.15,2.121-0.451S90.063,15.551,90.609,15.129z"/>
	<path d="M106.395,14.578c0,1.195-0.494,2.176-1.482,2.941s-2.338,1.148-4.049,1.148c-0.969,0-1.857-0.115-2.666-0.346
		s-1.486-0.482-2.033-0.756v-2.473h0.117c0.695,0.523,1.469,0.939,2.32,1.248s1.668,0.463,2.449,0.463
		c0.969,0,1.727-0.156,2.273-0.469s0.82-0.805,0.82-1.477c0-0.516-0.148-0.906-0.445-1.172s-0.867-0.492-1.711-0.68
		c-0.313-0.07-0.721-0.152-1.225-0.246s-0.963-0.195-1.377-0.305c-1.148-0.305-1.963-0.752-2.443-1.342s-0.721-1.314-0.721-2.174
		c0-0.539,0.111-1.047,0.334-1.523s0.561-0.902,1.014-1.277c0.438-0.367,0.994-0.658,1.67-0.873s1.432-0.322,2.268-0.322
		c0.781,0,1.572,0.096,2.373,0.287s1.467,0.424,1.998,0.697v2.355h-0.117c-0.563-0.414-1.246-0.764-2.051-1.049
		s-1.594-0.428-2.367-0.428c-0.805,0-1.484,0.154-2.039,0.463s-0.832,0.768-0.832,1.377c0,0.539,0.168,0.945,0.504,1.219
		c0.328,0.273,0.859,0.496,1.594,0.668c0.406,0.094,0.861,0.188,1.365,0.281s0.924,0.18,1.26,0.258
		c1.023,0.234,1.813,0.637,2.367,1.207C106.117,12.859,106.395,13.625,106.395,14.578z"/>
	<path d="M120.492,18.352h-2.203v-7.453c0-0.602-0.035-1.166-0.105-1.693s-0.199-0.939-0.387-1.236
		c-0.195-0.328-0.477-0.572-0.844-0.732s-0.844-0.24-1.43-0.24c-0.602,0-1.23,0.148-1.887,0.445s-1.285,0.676-1.887,1.137v9.773
		h-2.203V0.117h2.203v6.598c0.688-0.57,1.398-1.016,2.133-1.336s1.488-0.48,2.262-0.48c1.414,0,2.492,0.426,3.234,1.277
		s1.113,2.078,1.113,3.68V18.352z"/>
	<path d="M131.672,11.777h-7.313V9.656h7.313V11.777z"/>
	<path d="M147.152,11.707c0,1.094-0.154,2.078-0.463,2.953s-0.725,1.609-1.248,2.203c-0.555,0.617-1.164,1.08-1.828,1.389
		s-1.395,0.463-2.191,0.463c-0.742,0-1.391-0.088-1.945-0.264s-1.102-0.412-1.641-0.709l-0.141,0.609h-2.063V0.117h2.203v6.516
		c0.617-0.508,1.273-0.924,1.969-1.248s1.477-0.486,2.344-0.486c1.547,0,2.768,0.594,3.662,1.781S147.152,9.543,147.152,11.707z
		 M144.879,11.766c0-1.563-0.258-2.748-0.773-3.557s-1.348-1.213-2.496-1.213c-0.641,0-1.289,0.139-1.945,0.416
		s-1.266,0.635-1.828,1.072v7.5c0.625,0.281,1.162,0.477,1.611,0.586s0.959,0.164,1.529,0.164c1.219,0,2.174-0.4,2.865-1.201
		S144.879,13.477,144.879,11.766z"/>
	<path d="M158.754,7.664h-0.117c-0.328-0.078-0.646-0.135-0.955-0.17s-0.674-0.053-1.096-0.053c-0.68,0-1.336,0.15-1.969,0.451
		s-1.242,0.689-1.828,1.166v9.293h-2.203V5.262h2.203v1.934c0.875-0.703,1.646-1.201,2.314-1.494s1.35-0.439,2.045-0.439
		c0.383,0,0.66,0.01,0.832,0.029s0.43,0.057,0.773,0.111V7.664z"/>
	<path d="M163.195,3.07h-2.484V0.785h2.484V3.07z M163.055,18.352h-2.203V5.262h2.203V18.352z"/>
	<path d="M178.031,16.863c0,2.219-0.504,3.848-1.512,4.887s-2.559,1.559-4.652,1.559c-0.695,0-1.373-0.049-2.033-0.146
		s-1.311-0.236-1.951-0.416v-2.25H168c0.359,0.141,0.93,0.314,1.711,0.521s1.563,0.311,2.344,0.311c0.75,0,1.371-0.09,1.863-0.27
		s0.875-0.43,1.148-0.75c0.273-0.305,0.469-0.672,0.586-1.102s0.176-0.91,0.176-1.441V16.57c-0.664,0.531-1.299,0.928-1.904,1.189
		s-1.377,0.393-2.314,0.393c-1.563,0-2.803-0.564-3.721-1.693s-1.377-2.721-1.377-4.775c0-1.125,0.158-2.096,0.475-2.912
		s0.748-1.521,1.295-2.115c0.508-0.555,1.125-0.986,1.852-1.295s1.449-0.463,2.168-0.463c0.758,0,1.393,0.076,1.904,0.229
		s1.053,0.385,1.623,0.697l0.141-0.563h2.063V16.863z M175.828,14.754V7.617c-0.586-0.266-1.131-0.455-1.635-0.568
		s-1.006-0.17-1.506-0.17c-1.211,0-2.164,0.406-2.859,1.219s-1.043,1.992-1.043,3.539c0,1.469,0.258,2.582,0.773,3.34
		s1.371,1.137,2.566,1.137c0.641,0,1.283-0.123,1.928-0.369S175.289,15.168,175.828,14.754z"/>
	<path d="M192.539,18.352h-2.191v-1.395c-0.195,0.133-0.459,0.318-0.791,0.557s-0.654,0.428-0.967,0.568
		c-0.367,0.18-0.789,0.33-1.266,0.451s-1.035,0.182-1.676,0.182c-1.18,0-2.18-0.391-3-1.172s-1.23-1.777-1.23-2.988
		c0-0.992,0.213-1.795,0.639-2.408s1.033-1.096,1.822-1.447c0.797-0.352,1.754-0.59,2.871-0.715s2.316-0.219,3.598-0.281v-0.34
		c0-0.5-0.088-0.914-0.264-1.242s-0.428-0.586-0.756-0.773c-0.313-0.18-0.688-0.301-1.125-0.363s-0.895-0.094-1.371-0.094
		c-0.578,0-1.223,0.076-1.934,0.229s-1.445,0.373-2.203,0.662h-0.117V5.543c0.43-0.117,1.051-0.246,1.863-0.387
		s1.613-0.211,2.402-0.211c0.922,0,1.725,0.076,2.408,0.229s1.275,0.412,1.775,0.779c0.492,0.359,0.867,0.824,1.125,1.395
		s0.387,1.277,0.387,2.121V18.352z M190.348,15.129v-3.645c-0.672,0.039-1.463,0.098-2.373,0.176s-1.631,0.191-2.162,0.34
		c-0.633,0.18-1.145,0.459-1.535,0.838s-0.586,0.9-0.586,1.564c0,0.75,0.227,1.314,0.68,1.693s1.145,0.568,2.074,0.568
		c0.773,0,1.48-0.15,2.121-0.451S189.801,15.551,190.348,15.129z"/>
	<path d="M207.398,18.352h-2.203V16.98c-0.633,0.547-1.293,0.973-1.98,1.277s-1.434,0.457-2.238,0.457
		c-1.563,0-2.803-0.602-3.721-1.805s-1.377-2.871-1.377-5.004c0-1.109,0.158-2.098,0.475-2.965s0.744-1.605,1.283-2.215
		c0.531-0.594,1.15-1.047,1.857-1.359s1.439-0.469,2.197-0.469c0.688,0,1.297,0.072,1.828,0.217s1.09,0.369,1.676,0.674V0.117h2.203
		V18.352z M205.195,15.129V7.617c-0.594-0.266-1.125-0.449-1.594-0.551s-0.98-0.152-1.535-0.152c-1.234,0-2.195,0.43-2.883,1.289
		s-1.031,2.078-1.031,3.656c0,1.555,0.266,2.736,0.797,3.545s1.383,1.213,2.555,1.213c0.625,0,1.258-0.139,1.898-0.416
		S204.641,15.566,205.195,15.129z"/>
	<path d="M214.102,3.07h-2.484V0.785h2.484V3.07z M213.961,18.352h-2.203V5.262h2.203V18.352z"/>
	<path d="M226.488,7.664h-0.117c-0.328-0.078-0.646-0.135-0.955-0.17s-0.674-0.053-1.096-0.053c-0.68,0-1.336,0.15-1.969,0.451
		s-1.242,0.689-1.828,1.166v9.293h-2.203V5.262h2.203v1.934c0.875-0.703,1.646-1.201,2.314-1.494s1.35-0.439,2.045-0.439
		c0.383,0,0.66,0.01,0.832,0.029s0.43,0.057,0.773,0.111V7.664z"/>
	<path d="M228.762,18.352h-2.801v-3.34h2.801V18.352z"/>
	<path d="M242.063,7.664h-0.117c-0.328-0.078-0.646-0.135-0.955-0.17s-0.674-0.053-1.096-0.053c-0.68,0-1.336,0.15-1.969,0.451
		s-1.242,0.689-1.828,1.166v9.293h-2.203V5.262h2.203v1.934c0.875-0.703,1.646-1.201,2.314-1.494s1.35-0.439,2.045-0.439
		c0.383,0,0.66,0.01,0.832,0.029s0.43,0.057,0.773,0.111V7.664z"/>
	<path d="M254.988,18.352h-2.203v-1.453c-0.742,0.586-1.453,1.035-2.133,1.348s-1.43,0.469-2.25,0.469
		c-1.375,0-2.445-0.42-3.211-1.26s-1.148-2.072-1.148-3.697V5.262h2.203v7.453c0,0.664,0.031,1.232,0.094,1.705
		s0.195,0.877,0.398,1.213c0.211,0.344,0.484,0.594,0.82,0.75s0.824,0.234,1.465,0.234c0.57,0,1.193-0.148,1.869-0.445
		s1.307-0.676,1.893-1.137V5.262h2.203V18.352z"/>
</g>
</svg>
