<?xml version="1.0" encoding="utf-8"?>
<!-- Generator: Adobe Illustrator 21.1.0, SVG Export Plug-In . SVG Version: 6.00 Build 0)  -->
<svg version="1.1" id="Capa_1" xmlns="http://www.w3.org/2000/svg" xmlns:xlink="http://www.w3.org/1999/xlink" x="0px" y="0px"
	 viewBox="0 0 109 166" style="enable-background:new 0 0 109 166;" xml:space="preserve">
<style type="text/css">
	.st0{fill:#F3F3F3;stroke:#DBDBDB;stroke-miterlimit:10;}
	.st1{fill:#B3E268;}
	.st2{fill:#0056B5;}
</style>
<rect x="0.5" y="0.5" class="st0" width="108" height="165"/>
<g>
	<g>
		<path class="st1" d="M59.5,20c-3,0-2,6.5-2,6.5s-6.5,18-12.7,22.7c-1.3,1.4-2.2,3-2.7,4.2l0,0l0,0c-0.1,0.3-0.2,0.6-0.3,0.9
			c-0.4,0.8-1.3,2.2-3.2,3.3l6.2,27.1c0,0,9.6,1.3,19.3,1.1c3.9,0.3,8,0.3,11.2-0.4c11.1-2.4,8.3-10.1,8.3-10.1
			c6-4.5,2.6-10.1,2.6-10.1c5.3-5.5,0.1-10.2,0.1-10.2s2.9-4.5-0.8-7.9c-4.6-4.2-17.2-1.4-17.2-1.4l0,0c-0.9,0.1-1.8,0.3-2.8,0.6
			c0,0-4.3,2,0-11.1C69.7,22,62.5,20,59.5,20z"/>
		<path class="st1" d="M40.2,82.8l-4.7-22.4c-0.3-1.3-1.6-2.3-2.9-2.3h-9v27.1h14.7C39.6,85.1,40.5,84.1,40.2,82.8z"/>
	</g>
</g>
<g>
	<g>
		<g>
			<path class="st2" d="M25,122.4c-0.6-0.3-1-0.7-1.3-1.3c-0.3-0.6-0.5-1.2-0.6-2c-0.1-0.8-0.1-1.7-0.1-2.6s0-1.8,0.1-2.6
				c0.1-0.8,0.3-1.5,0.6-2c0.3-0.6,0.7-1,1.3-1.3c0.6-0.3,1.3-0.5,2.2-0.5s1.7,0.2,2.2,0.5c0.6,0.3,1,0.8,1.3,1.3
				c0.3,0.6,0.5,1.2,0.6,2c0.1,0.8,0.1,1.7,0.1,2.6c0,1,0,1.8-0.1,2.6s-0.3,1.5-0.6,2c-0.3,0.6-0.7,1-1.3,1.3
				c-0.6,0.3-1.3,0.5-2.2,0.5S25.5,122.7,25,122.4z M28.1,120.8c0.2-0.2,0.4-0.4,0.5-0.8s0.2-0.8,0.2-1.4s0.1-1.3,0.1-2.1
				s0-1.5-0.1-2.1c0-0.6-0.1-1.1-0.2-1.4c-0.1-0.3-0.3-0.6-0.5-0.8s-0.5-0.3-0.9-0.3s-0.7,0.1-0.9,0.3s-0.4,0.4-0.5,0.8
				c-0.1,0.4-0.2,0.8-0.2,1.4c0,0.6-0.1,1.3-0.1,2.1c0,0.8,0,1.5,0.1,2.1c0,0.6,0.1,1.1,0.2,1.4s0.3,0.6,0.5,0.8
				c0.2,0.2,0.5,0.3,0.9,0.3S27.9,121,28.1,120.8z"/>
			<path class="st2" d="M32.2,112.3v-2.1h7.9v2.1h-2.7v10.4h-2.5v-10.4H32.2z"/>
			<path class="st2" d="M42.9,122.6c-0.5-0.2-0.9-0.4-1.2-0.7c-0.3-0.3-0.5-0.7-0.7-1.2c-0.1-0.5-0.2-1.1-0.2-1.7v-0.2h2.5v0.2
				c0,0.3,0,0.5,0.1,0.8c0,0.2,0.1,0.5,0.2,0.7c0.1,0.2,0.3,0.4,0.5,0.5s0.5,0.2,0.8,0.2c0.5,0,0.9-0.2,1.2-0.5
				c0.3-0.3,0.4-0.8,0.4-1.5c0-0.7-0.1-1.2-0.4-1.5c-0.3-0.3-0.7-0.4-1.4-0.4h-0.4c-0.2,0-0.3,0-0.4,0v-1.9c0.1,0,0.1,0,0.2,0h0.2
				c0.7,0,1.2-0.2,1.5-0.5s0.4-0.8,0.4-1.5c0-0.5-0.1-0.9-0.3-1.1c-0.2-0.2-0.6-0.3-1-0.3s-0.7,0.1-1,0.3s-0.4,0.4-0.5,0.8
				c0,0.1,0,0.2,0,0.3s0,0.2,0,0.4h-2.5v-0.1c0-1.2,0.3-2,1-2.6s1.7-0.9,3-0.9c1.2,0,2.1,0.3,2.8,0.8s1,1.4,1,2.4
				c0,0.3,0,0.6-0.1,0.9c-0.1,0.3-0.2,0.6-0.3,0.8c-0.2,0.3-0.4,0.5-0.6,0.7c-0.2,0.2-0.5,0.3-0.8,0.4c0.7,0.2,1.2,0.5,1.6,0.9
				c0.4,0.5,0.6,1.1,0.6,2c0,1.3-0.4,2.3-1.1,2.9c-0.7,0.6-1.8,0.9-3.1,0.9C44,122.9,43.4,122.8,42.9,122.6z"/>
			<path class="st2" d="M53,110.3v4.7h1.3c0.6,0,1.2,0.1,1.7,0.2c0.5,0.1,0.9,0.4,1.2,0.7c0.3,0.3,0.6,0.7,0.8,1.2s0.3,1.1,0.3,1.8
				s-0.1,1.3-0.3,1.8s-0.4,0.9-0.8,1.2c-0.3,0.3-0.8,0.5-1.3,0.7c-0.5,0.1-1.1,0.2-1.7,0.2h-3.8v-12.5H53z M55.3,120.4
				c0.3-0.3,0.5-0.8,0.5-1.6c0-0.4,0-0.7-0.1-0.9c-0.1-0.3-0.2-0.4-0.4-0.6c-0.2-0.1-0.4-0.2-0.6-0.3c-0.2-0.1-0.5-0.1-0.9-0.1H53
				v3.9h0.7C54.5,120.8,55,120.6,55.3,120.4z M61.9,110.3v12.4h-2.5v-12.4H61.9z"/>
			<path class="st2" d="M67.8,110.3c0.5,0,1,0.1,1.4,0.2s0.8,0.3,1.1,0.5c0.3,0.2,0.6,0.6,0.7,1s0.3,0.9,0.3,1.5
				c0,0.7-0.2,1.2-0.5,1.7s-0.8,0.8-1.4,1l0,0c0.7,0.1,1.2,0.4,1.7,0.9c0.4,0.5,0.6,1.2,0.6,2c0,0.5-0.1,1-0.2,1.4s-0.3,0.8-0.7,1.2
				c-0.4,0.4-0.7,0.6-1.2,0.8s-1.1,0.3-1.8,0.3h-4.2v-12.5H67.8z M68.3,115c0.3-0.2,0.5-0.7,0.5-1.3c0-0.6-0.1-1-0.4-1.3
				S67.7,112,67,112h-0.9v3.3h0.7C67.5,115.4,68,115.2,68.3,115z M68.5,120.4c0.4-0.3,0.6-0.8,0.6-1.5c0-0.4,0-0.7-0.1-0.9
				s-0.2-0.4-0.4-0.6c-0.2-0.1-0.4-0.2-0.6-0.3s-0.5-0.1-0.8-0.1h-1.1v3.7h1C67.7,120.8,68.2,120.7,68.5,120.4z"/>
			<path class="st2" d="M75.8,110.3v4.7h1.3c0.6,0,1.2,0.1,1.7,0.2c0.5,0.1,0.9,0.4,1.2,0.7c0.3,0.3,0.6,0.7,0.8,1.2
				c0.2,0.5,0.3,1.1,0.3,1.8s-0.1,1.3-0.3,1.8c-0.2,0.5-0.4,0.9-0.8,1.2c-0.3,0.3-0.8,0.5-1.3,0.7c-0.5,0.1-1.1,0.2-1.7,0.2h-3.8
				v-12.5H75.8z M78.1,120.4c0.3-0.3,0.5-0.8,0.5-1.6c0-0.4,0-0.7-0.1-0.9c-0.1-0.3-0.2-0.4-0.4-0.6c-0.2-0.1-0.4-0.2-0.6-0.3
				c-0.2-0.1-0.5-0.1-0.9-0.1h-0.8v3.9h0.7C77.2,120.8,77.7,120.6,78.1,120.4z M84.6,110.3v12.4h-2.5v-12.4H84.6z"/>
		</g>
	</g>
	<g>
		<path class="st2" d="M25.7,128.1v5l0,0l3.2-5h2.7l-3.4,5.3l3.8,7.1h-2.8l-2.6-5.1l-0.9,1.4v3.7h-2.5v-12.4H25.7z"/>
		<path class="st2" d="M32.2,140.6c-0.2,0-0.4,0-0.5-0.1v-2.1c0.1,0,0.1,0,0.2,0c0.1,0,0.1,0,0.1,0c0.2,0,0.4,0,0.5,0
			s0.3-0.1,0.5-0.3c0.1-0.2,0.2-0.5,0.3-0.9c0.1-0.4,0.2-1,0.2-1.8c0.1-0.8,0.1-1.7,0.1-2.9s0.1-2.6,0.1-4.3h7.1v12.4h-2.5v-10.5
			h-2.2c0,1.5,0,2.7-0.1,3.8c0,1.1-0.1,2-0.2,2.8s-0.2,1.4-0.4,1.9s-0.4,0.9-0.6,1.2c-0.3,0.3-0.6,0.5-0.9,0.6
			c-0.4,0.1-0.8,0.2-1.2,0.2C32.6,140.6,32.4,140.6,32.2,140.6z"/>
		<path class="st2" d="M45,128.1v8l3-8h2.7v12.4h-2.4v-7.9l-3,7.9h-2.7v-12.4H45z"/>
		<path class="st2" d="M59.4,128.1v2.1H55v2.9h4.2v2.1H55v3.3h4.6v2.1h-7.1v-12.5H59.4z"/>
		<path class="st2" d="M63.4,128.1v4.7h2.9v-4.7h2.5v12.4h-2.5V135h-2.9v5.5h-2.5v-12.4H63.4z"/>
		<path class="st2" d="M69.9,130.1V128h7.9v2.1h-2.7v10.4h-2.5v-10.4H69.9z"/>
		<path class="st2" d="M80.6,140.2c-0.6-0.3-1-0.7-1.3-1.3c-0.3-0.6-0.5-1.2-0.6-2c-0.1-0.8-0.1-1.7-0.1-2.6c0-0.9,0-1.8,0.1-2.6
			c0.1-0.8,0.3-1.5,0.6-2c0.3-0.6,0.7-1,1.3-1.3c0.6-0.3,1.3-0.5,2.2-0.5s1.7,0.2,2.2,0.5c0.6,0.3,1,0.8,1.3,1.3
			c0.3,0.6,0.5,1.2,0.6,2c0.1,0.8,0.1,1.7,0.1,2.6c0,1,0,1.8-0.1,2.6c-0.1,0.8-0.3,1.5-0.6,2c-0.3,0.6-0.7,1-1.3,1.3
			c-0.6,0.3-1.3,0.5-2.2,0.5S81.2,140.5,80.6,140.2z M83.7,138.6c0.2-0.2,0.4-0.4,0.5-0.8c0.1-0.4,0.2-0.8,0.2-1.4
			c0-0.6,0.1-1.3,0.1-2.1s0-1.5-0.1-2.1c0-0.6-0.1-1.1-0.2-1.4s-0.3-0.6-0.5-0.8s-0.5-0.3-0.9-0.3s-0.7,0.1-0.9,0.3
			s-0.4,0.4-0.5,0.8c-0.1,0.4-0.2,0.8-0.2,1.4c0,0.6-0.1,1.3-0.1,2.1s0,1.5,0.1,2.1c0,0.6,0.1,1.1,0.2,1.4s0.3,0.6,0.5,0.8
			c0.2,0.2,0.5,0.3,0.9,0.3S83.5,138.8,83.7,138.6z"/>
		<path class="st2" d="M92.7,128.1c0.5,0,1,0.1,1.4,0.2c0.4,0.1,0.8,0.3,1.1,0.5c0.3,0.2,0.6,0.6,0.7,1c0.2,0.4,0.3,0.9,0.3,1.5
			c0,0.7-0.2,1.2-0.5,1.7s-0.8,0.8-1.4,1l0,0c0.7,0.1,1.2,0.4,1.7,0.9s0.6,1.2,0.6,2c0,0.5-0.1,1-0.2,1.4s-0.3,0.8-0.7,1.2
			c-0.4,0.4-0.7,0.6-1.2,0.8s-1.1,0.3-1.8,0.3h-4.2v-12.5H92.7z M93.3,132.8c0.3-0.2,0.5-0.7,0.5-1.3s-0.1-1-0.4-1.3
			s-0.7-0.4-1.4-0.4h-0.9v3.3h0.7C92.5,133.2,93,133.1,93.3,132.8z M93.5,138.3c0.4-0.3,0.6-0.8,0.6-1.5c0-0.4,0-0.7-0.1-0.9
			c-0.1-0.2-0.2-0.4-0.4-0.6c-0.2-0.1-0.4-0.2-0.6-0.3s-0.5-0.1-0.8-0.1h-1.1v3.7h1C92.6,138.7,93.1,138.5,93.5,138.3z"/>
	</g>
</g>
</svg>
