<?xml version="1.0" encoding="iso-8859-1"?>
<!-- Generator: Adobe Illustrator 17.0.0, SVG Export Plug-In . SVG Version: 6.00 Build 0)  -->
<!DOCTYPE svg PUBLIC "-//W3C//DTD SVG 1.1//EN" "http://www.w3.org/Graphics/SVG/1.1/DTD/svg11.dtd">
<svg version="1.1" id="Capa_1" xmlns="http://www.w3.org/2000/svg" xmlns:xlink="http://www.w3.org/1999/xlink" x="0px" y="0px"
	 width="58.753px" height="60.001px" viewBox="0 0 58.753 60.001" style="enable-background:new 0 0 58.753 60.001;"
	 xml:space="preserve">
<g>
	<path style="fill:#6ABECD;" d="M53.489,2.565C53.489,1.149,52.341,0,50.925,0H7.952C6.536,0,5.388,1.148,5.388,2.565v7.01
		L7.417,8.6h44.042l2.03,0.974C53.489,9.574,53.489,2.565,53.489,2.565z"/>
	<path style="fill:#6ABECD;" d="M0.04,22.868L0,18.272c-0.004-0.712,0.714-1.294,1.603-1.299c0.528-0.003,0.996,0.199,1.292,0.511
		c0.202,0.214,0.324,0.48,0.326,0.769l0.033,3.307l2.347-0.013l0.015,2.579l-3.958,0.022C0.768,24.154,0.044,23.58,0.04,22.868z"/>
	<path style="fill:#6ABECD;" d="M57.151,23.836l-3.958,0.022l-0.015-2.579l2.347-0.013l-0.033-3.307
		c-0.002-0.289,0.117-0.556,0.317-0.773c0.292-0.316,0.758-0.523,1.286-0.526c0.89-0.005,1.614,0.568,1.618,1.281l0.04,4.596
		C58.758,23.249,58.04,23.831,57.151,23.836z"/>
	<path style="fill:#6ABECD;" d="M50.376,10.296H8.501c-0.638,0-1.157,0.519-1.157,1.157V54.69c0,0.638,0.519,1.157,1.157,1.157
		h0.887v0.419v2.774c0,0.53,0.431,0.961,0.961,0.961h6.193c0.53,0,0.961-0.431,0.961-0.961v-2.774v-0.419h23.871v0.419v2.774
		c0,0.53,0.431,0.961,0.961,0.961h6.193c0.53,0,0.961-0.431,0.961-0.961v-2.774v-0.419h0.887c0.638,0,1.157-0.519,1.157-1.157
		V11.453C51.532,10.815,51.013,10.296,50.376,10.296z M17.147,49.73H10.45v-3.645h6.697V49.73z M10.875,28.965V14.542H9.018v14.423
		H10.875L10.875,28.965z M33.183,49.565h-7.49l-0.363-1.897h8.216L33.183,49.565z M38.212,46.65H20.665v-2.713h17.547V46.65z
		 M20.665,41.852v-1.436h17.547v1.436 M10.284,28.965V14.542h37.718v14.423H28.157H10.284z M48.426,49.73h-6.697v-3.645h6.697V49.73
		z"/>
</g>
</svg>
