<?xml version="1.0" encoding="utf-8"?>
<!-- Generator: Adobe Illustrator 17.0.0, SVG Export Plug-In . SVG Version: 6.00 Build 0)  -->
<!DOCTYPE svg PUBLIC "-//W3C//DTD SVG 1.1//EN" "http://www.w3.org/Graphics/SVG/1.1/DTD/svg11.dtd">
<svg version="1.1" id="Слой_1" xmlns="http://www.w3.org/2000/svg" xmlns:xlink="http://www.w3.org/1999/xlink" x="0px" y="0px"
	 width="13.836px" height="11.642px" viewBox="0 0 13.836 11.642" enable-background="new 0 0 13.836 11.642" xml:space="preserve">
<g>
	<path fill="#FFFFFF" d="M6.642,11.529L0.115,5.002c-0.154-0.154-0.154-0.4,0-0.554c0.154-0.154,0.4-0.154,0.554,0l6.249,6.249
		l6.249-6.249c0.154-0.154,0.4-0.154,0.554,0c0.075,0.075,0.116,0.177,0.116,0.275S13.798,4.924,13.72,5l-6.527,6.527
		C7.042,11.68,6.793,11.68,6.642,11.529z"/>
</g>
<g>
	<path fill="#FFFFFF" d="M6.642,7.196L0.115,0.669c-0.154-0.154-0.154-0.4,0-0.554s0.4-0.154,0.554,0l6.249,6.249l6.249-6.249
		c0.154-0.154,0.4-0.154,0.554,0c0.075,0.075,0.116,0.177,0.116,0.275c0,0.099-0.038,0.2-0.116,0.275L7.193,7.193
		C7.042,7.347,6.793,7.347,6.642,7.196z"/>
</g>
</svg>
