<?xml version="1.0" encoding="utf-8"?>
<!-- Generator: Adobe Illustrator 17.0.0, SVG Export Plug-In . SVG Version: 6.00 Build 0)  -->
<!DOCTYPE svg PUBLIC "-//W3C//DTD SVG 1.1//EN" "http://www.w3.org/Graphics/SVG/1.1/DTD/svg11.dtd">
<svg version="1.1" id="Слой_1" xmlns="http://www.w3.org/2000/svg" xmlns:xlink="http://www.w3.org/1999/xlink" x="0px" y="0px"
	 width="28px" height="27.237px" viewBox="0 0 28 27.237" enable-background="new 0 0 28 27.237" xml:space="preserve">
<g>
	<path fill="#FFFFFF" d="M6.533,16.503h6.533v-4.667H6.533V16.503z M7.467,15.57v-1.4h4.667v1.4H7.467z M12.133,12.77v0.467H7.467
		V12.77H12.133z"/>
	<path fill="#FFFFFF" d="M6.533,18.37v5.6h6.533v-5.6H6.533z M9.333,19.303v1.4H7.467v-1.4H9.333z M7.467,21.637h1.867v1.4H7.467
		V21.637z M10.267,23.037v-1.4h1.867v1.4H10.267z M12.133,20.703h-1.867v-1.4h1.867V20.703z"/>
	<path fill="#FFFFFF" d="M14.933,16.503h6.533v-4.667h-6.533V16.503z M15.867,15.57v-0.467h4.667v0.467H15.867z M20.533,12.77v1.4
		h-4.667v-1.4H20.533z"/>
	<path fill="#FFFFFF" d="M25.2,23.037v-9.429c0.243,0.109,0.501,0.169,0.759,0.169c0.501,0,0.998-0.203,1.366-0.599
		c0.355-0.382,0.534-0.898,0.493-1.418c-0.042-0.519-0.301-1.001-0.71-1.322L15.27,1.179L14,0l-1.24,1.154L0.893,10.438
		c-0.41,0.321-0.669,0.803-0.71,1.322c-0.041,0.519,0.139,1.036,0.493,1.418c0.557,0.6,1.41,0.751,2.125,0.43v9.429h0.533V22.57
		c0-0.258-0.498-0.723-0.467-0.467C2.891,22.299,2.8,22.313,2.8,22.57v0.467l0.09-0.004v-0.467c0-0.258,0.631-0.75,0.373-0.75
		s-0.467,0.209-0.467,0.467v4.2c0,0.258,0.209,0.467,0.467,0.467s-0.217-0.018-0.217-0.276l-0.172-0.5L2.8,26.304v0.467
		c0,0.258,0.066,0.467,0.066,0.467s0.467-0.209,0.467-0.467v-0.467H2.8v0.933h12.133h6.533H25.2v-0.933 M1.359,12.543
		c-0.18-0.194-0.267-0.445-0.246-0.708s0.147-0.498,0.355-0.661l11.897-9.31L14,1.273l0.665,0.616l11.867,9.285
		c0.208,0.163,0.334,0.398,0.355,0.661c0.021,0.263-0.067,0.515-0.246,0.708c-0.33,0.356-0.868,0.4-1.253,0.104L25.2,12.502l0,0
		L14,3.869L2.982,12.362l0,0l-0.369,0.284C2.227,12.943,1.689,12.898,1.359,12.543z M2.891,25.198v-1.4L2.8,23.97v1.4L2.891,25.198z
		 M3.333,25.37v-1.4H2.8v1.4H3.333z M15.867,26.303v-7h4.667v7H15.867z M24.267,26.303h-2.8V18.37h-6.533v7.933h-11.2V12.961
		L14,5.047l10.267,7.914V26.303z M25.2,25.37v-1.4"/>
</g>
</svg>
