<?xml version="1.0" encoding="utf-8"?>
<!-- Generator: Adobe Illustrator 21.1.0, SVG Export Plug-In . SVG Version: 6.00 Build 0)  -->
<svg version="1.1" id="Слой_1" xmlns="http://www.w3.org/2000/svg" xmlns:xlink="http://www.w3.org/1999/xlink" x="0px" y="0px"
	 viewBox="0 0 162.5 62.3" style="enable-background:new 0 0 162.5 62.3;" xml:space="preserve">
<style type="text/css">
	.st0{fill:#45C3E5;}
	.st1{enable-background:new    ;}
	.st2{fill:#FFFFFF;}
</style>
<polygon class="st0" points="21.5,0 162.5,0 162.5,62.3 0,62.3 0,22 "/>
<g class="st1">
	<path class="st2" d="M66.8,15.7v11.4h-2.3v-9.5h-2.7v9.5h-2.3V15.7H66.8z"/>
	<path class="st2" d="M70.4,18.5v0.9l0,0c0.2-0.4,0.5-0.7,0.8-0.9s0.7-0.3,1.1-0.3c0.9,0,1.6,0.4,2,1.1s0.6,1.9,0.6,3.5
		s-0.2,2.7-0.6,3.4c-0.4,0.7-1.1,1-2,1c-0.4,0-0.8-0.1-1.1-0.2c-0.3-0.2-0.6-0.4-0.8-0.7l0,0v3.6h-2.2V18.5H70.4z M72.6,25
		c0.1-0.5,0.2-1.2,0.2-2.1s-0.1-1.6-0.2-2.1s-0.5-0.7-0.9-0.7c-0.5,0-0.8,0.2-1,0.7s-0.2,1.2-0.2,2.1s0.1,1.6,0.2,2.1s0.5,0.7,1,0.7
		S72.5,25.4,72.6,25z"/>
	<path class="st2" d="M77.8,27.1c-0.4-0.2-0.8-0.5-1-0.8c-0.3-0.4-0.4-0.8-0.5-1.4s-0.2-1.2-0.2-2c0-0.7,0.1-1.4,0.2-2
		s0.3-1,0.6-1.4c0.3-0.4,0.6-0.7,1-0.9c0.4-0.2,1-0.3,1.6-0.3c0.7,0,1.2,0.1,1.6,0.3c0.4,0.2,0.8,0.5,1,0.8c0.3,0.4,0.4,0.8,0.5,1.4
		s0.2,1.2,0.2,2s-0.1,1.4-0.2,2s-0.3,1-0.6,1.4c-0.3,0.4-0.6,0.7-1,0.8c-0.4,0.2-1,0.3-1.6,0.3S78.2,27.2,77.8,27.1z M80.4,25.2
		c0.2-0.5,0.3-1.2,0.3-2.3s-0.1-1.9-0.3-2.3c-0.2-0.5-0.5-0.7-0.9-0.7c-0.3,0-0.5,0.1-0.6,0.2s-0.3,0.4-0.4,0.6s-0.1,0.6-0.2,1
		c0,0.4,0,0.8,0,1.2s0,0.8,0,1.2c0,0.4,0.1,0.7,0.2,1s0.2,0.5,0.4,0.6s0.4,0.2,0.6,0.2C79.9,25.9,80.2,25.6,80.4,25.2z"/>
	<path class="st2" d="M84,27.1v-8.6h2.2v6.9h2.1v-6.9h2.2v6.9h1v3.7h-2v-2H84z"/>
	<path class="st2" d="M93.5,26.9c-0.4-0.3-0.8-0.6-1-1.1c-0.2-0.4-0.3-0.9-0.4-1.5S92,23.2,92,22.7c0-0.6,0-1.1,0.1-1.7
		c0.1-0.5,0.2-1,0.5-1.4c0.2-0.4,0.6-0.7,1-1c0.4-0.2,1-0.4,1.8-0.4c0.6,0,1.2,0.1,1.6,0.3c0.4,0.2,0.7,0.5,1,0.9
		c0.2,0.4,0.4,0.8,0.5,1.4c0.1,0.5,0.1,1.1,0.1,1.8v0.5h-4.4v0.7c0,0.3,0,0.5,0.1,0.7c0,0.2,0.1,0.5,0.2,0.6
		c0.1,0.2,0.2,0.3,0.3,0.4c0.1,0.1,0.3,0.2,0.5,0.2c0.4,0,0.6-0.1,0.8-0.4s0.3-0.7,0.4-1.2h2c0,1-0.3,1.8-0.8,2.3s-1.3,0.8-2.3,0.8
		C94.6,27.3,94,27.2,93.5,26.9z M96.5,21c0-0.3-0.1-0.5-0.2-0.6S96.1,20,96,20c-0.1-0.1-0.3-0.1-0.6-0.1c-0.2,0-0.4,0.1-0.6,0.2
		c-0.1,0.1-0.3,0.2-0.3,0.4c-0.1,0.2-0.1,0.3-0.2,0.6c0,0.2-0.1,0.4-0.1,0.6V22h2.3C96.5,21.5,96.5,21.2,96.5,21z"/>
	<path class="st2" d="M99.8,25.5c0.3-0.6,0.5-1.3,0.6-2.1c0.1-0.8,0.2-1.8,0.2-3v-1.9h5.8v6.9h1v3.7h-2v-2H101v2h-2v-3.7h0.8V25.5z
		 M104.3,20.2h-1.6V21c0,0.3,0,0.7,0,1.1s-0.1,0.8-0.1,1.2c-0.1,0.4-0.1,0.8-0.2,1.2s-0.2,0.7-0.3,1h2.3v-5.3H104.3z"/>
	<path class="st2" d="M108.2,28.3c0.2,0,0.4,0,0.6,0c0.4,0,0.7-0.1,0.9-0.3c0.2-0.2,0.3-0.5,0.3-0.8l-2.4-8.6h2.3l1.3,6l0,0l1.1-6
		h2.2l-2.1,8c-0.2,0.7-0.4,1.3-0.6,1.7c-0.2,0.4-0.4,0.8-0.6,1s-0.5,0.4-0.9,0.5c-0.3,0.1-0.8,0.1-1.3,0.1h-0.9L108.2,28.3
		L108.2,28.3z"/>
	<path class="st2" d="M117.5,18.5v0.9l0,0c0.2-0.4,0.5-0.7,0.8-0.9c0.3-0.2,0.7-0.3,1.1-0.3c0.9,0,1.6,0.4,2,1.1s0.6,1.9,0.6,3.5
		s-0.2,2.7-0.6,3.4s-1.1,1-2,1c-0.4,0-0.8-0.1-1.1-0.2c-0.3-0.2-0.6-0.4-0.8-0.7l0,0v3.6h-2.2V18.5H117.5z M119.7,25
		c0.1-0.5,0.2-1.2,0.2-2.1s-0.1-1.6-0.2-2.1s-0.5-0.7-0.9-0.7c-0.5,0-0.8,0.2-1,0.7c-0.1,0.5-0.2,1.2-0.2,2.1s0.1,1.6,0.2,2.1
		s0.5,0.7,1,0.7C119.2,25.7,119.5,25.4,119.7,25z"/>
	<path class="st2" d="M124.2,27.1c-0.3-0.1-0.5-0.3-0.6-0.6c-0.2-0.2-0.3-0.5-0.4-0.8s-0.1-0.6-0.1-0.9c0-0.4,0-0.8,0.1-1
		c0.1-0.3,0.2-0.5,0.4-0.8s0.4-0.4,0.7-0.5c0.3-0.1,0.6-0.3,1-0.4l1.2-0.3c0.3-0.1,0.6-0.2,0.7-0.4c0.1-0.1,0.2-0.4,0.2-0.7
		c0-0.3-0.1-0.6-0.2-0.8c-0.2-0.2-0.4-0.3-0.8-0.3c-0.3,0-0.6,0.1-0.8,0.3c-0.2,0.2-0.3,0.5-0.3,0.8v0.2h-2V21
		c0-0.5,0.1-0.9,0.2-1.2c0.2-0.3,0.4-0.6,0.6-0.8c0.3-0.2,0.6-0.4,1-0.4s0.8-0.1,1.2-0.1c0.7,0,1.2,0.1,1.6,0.2s0.7,0.3,1,0.5
		c0.2,0.2,0.4,0.5,0.5,0.8s0.1,0.7,0.1,1.1v4.5c0,0.4,0,0.7,0.1,0.9c0,0.2,0.1,0.5,0.2,0.7h-2.1c-0.1-0.1-0.1-0.3-0.2-0.4
		c0-0.2-0.1-0.3-0.1-0.5l0,0c-0.3,0.4-0.6,0.7-0.9,0.9c-0.3,0.1-0.8,0.2-1.3,0.2C124.8,27.3,124.4,27.3,124.2,27.1z M126.5,25.8
		c0.2,0,0.3-0.1,0.4-0.2s0.2-0.2,0.3-0.4c0.1-0.2,0.1-0.4,0.1-0.6v-1.7c-0.1,0.1-0.3,0.2-0.5,0.3c-0.2,0.1-0.3,0.1-0.5,0.2
		c-0.4,0.1-0.8,0.3-1,0.5s-0.3,0.5-0.3,0.9c0,0.3,0.1,0.6,0.2,0.8c0.1,0.2,0.3,0.4,0.6,0.4C126.2,25.9,126.3,25.8,126.5,25.8z"/>
</g>
<g class="st1">
	<path class="st2" d="M59.9,45.9c-0.5-0.4-0.8-1.2-0.8-2.2v-0.2h2v0.1c0,0.5,0.1,0.8,0.3,1.1s0.5,0.4,0.9,0.4c0.3,0,0.6-0.1,0.8-0.3
		s0.3-0.5,0.3-0.9s-0.1-0.8-0.3-0.9c-0.2-0.2-0.4-0.3-0.8-0.3H62c-0.2,0-0.3,0-0.4,0v-1.5c0.1,0,0.2,0,0.4,0h0.3
		c0.3,0,0.5-0.1,0.7-0.3s0.3-0.5,0.3-0.9c0-0.3-0.1-0.6-0.3-0.7c-0.2-0.2-0.4-0.2-0.7-0.2c-0.4,0-0.6,0.1-0.8,0.3
		c-0.1,0.2-0.2,0.5-0.2,0.9v0.1h-2v-0.1c0-0.5,0.1-0.9,0.2-1.2c0.1-0.3,0.4-0.6,0.6-0.8s0.6-0.4,1-0.4s0.8-0.1,1.2-0.1
		c1,0,1.7,0.2,2.2,0.6c0.5,0.4,0.7,1,0.7,1.7c0,0.2,0,0.4-0.1,0.6s-0.1,0.4-0.2,0.6c-0.1,0.2-0.2,0.3-0.4,0.5s-0.3,0.2-0.6,0.3
		c0.5,0.1,0.9,0.3,1.1,0.6c0.3,0.3,0.4,0.8,0.4,1.4c0,0.5-0.1,0.9-0.2,1.2c-0.2,0.3-0.4,0.6-0.7,0.8c-0.3,0.2-0.6,0.4-1,0.5
		s-0.8,0.2-1.3,0.2C61.2,46.5,60.5,46.3,59.9,45.9z"/>
	<path class="st2" d="M67.6,46.3c-0.3-0.1-0.5-0.3-0.6-0.6c-0.2-0.2-0.3-0.5-0.4-0.8s-0.1-0.6-0.1-0.9c0-0.4,0-0.8,0.1-1
		c0.1-0.3,0.2-0.5,0.4-0.8c0.2-0.2,0.4-0.4,0.7-0.5s0.6-0.3,1-0.4l1.2-0.3c0.3-0.1,0.6-0.2,0.7-0.4c0.1-0.1,0.2-0.4,0.2-0.7
		s-0.1-0.6-0.2-0.8S70.1,39,69.8,39c-0.3,0-0.6,0.1-0.8,0.3c-0.2,0.2-0.3,0.5-0.3,0.8v0.2h-2v-0.2c0-0.5,0.1-0.9,0.2-1.2
		c0.2-0.3,0.4-0.6,0.6-0.8c0.3-0.2,0.6-0.4,1-0.4s0.8-0.1,1.2-0.1c0.7,0,1.2,0.1,1.6,0.2c0.4,0.1,0.7,0.3,1,0.5
		c0.2,0.2,0.4,0.5,0.5,0.8s0.1,0.7,0.1,1.1v4.5c0,0.4,0,0.7,0.1,0.9c0,0.2,0.1,0.5,0.2,0.7h-2.1C71,46.2,71,46,70.9,45.9
		c0-0.2-0.1-0.3-0.1-0.5l0,0c-0.3,0.4-0.6,0.7-0.9,0.9c-0.3,0.1-0.8,0.2-1.3,0.2C68.2,46.5,67.9,46.5,67.6,46.3z M69.9,45
		c0.2,0,0.3-0.1,0.4-0.2c0.1-0.1,0.2-0.2,0.3-0.4c0.1-0.2,0.1-0.4,0.1-0.6V42c-0.1,0.1-0.3,0.2-0.5,0.3s-0.3,0.1-0.5,0.2
		c-0.4,0.1-0.8,0.3-1,0.5s-0.3,0.5-0.3,0.9c0,0.3,0.1,0.6,0.2,0.8s0.3,0.4,0.6,0.4C69.6,45.1,69.7,45,69.9,45z"/>
	<path class="st2" d="M76.7,37.7v3.6l2.3-3.6h2.4l-2.5,3.6l2.8,5h-2.4L77.5,43l-0.8,1.2v2.1h-2.2v-8.6
		C74.5,37.7,76.7,37.7,76.7,37.7z"/>
	<path class="st2" d="M83.2,46.3c-0.3-0.1-0.5-0.3-0.6-0.6s-0.3-0.5-0.4-0.8s-0.1-0.6-0.1-0.9c0-0.4,0-0.8,0.1-1
		c0.1-0.3,0.2-0.5,0.4-0.8c0.2-0.2,0.4-0.4,0.7-0.5c0.3-0.1,0.6-0.3,1-0.4l1.2-0.3c0.3-0.1,0.6-0.2,0.7-0.4s0.2-0.4,0.2-0.7
		s-0.1-0.6-0.2-0.8c-0.2,0-0.4-0.1-0.8-0.1c-0.3,0-0.6,0.1-0.8,0.3c-0.2,0.2-0.3,0.5-0.3,0.8v0.2h-2v-0.2c0-0.5,0.1-0.9,0.2-1.2
		c0.2-0.3,0.4-0.6,0.6-0.8s0.6-0.4,1-0.4s0.8-0.1,1.2-0.1c0.7,0,1.2,0.1,1.6,0.2s0.7,0.3,1,0.5c0.2,0.2,0.4,0.5,0.5,0.8
		s0.1,0.7,0.1,1.1v4.5c0,0.4,0,0.7,0.1,0.9c0,0.2,0.1,0.5,0.2,0.7h-2.1c-0.1-0.1-0.1-0.3-0.2-0.4c0-0.2-0.1-0.3-0.1-0.5l0,0
		c-0.3,0.4-0.6,0.7-0.9,0.9c-0.3,0.1-0.8,0.2-1.3,0.2C83.8,46.5,83.5,46.5,83.2,46.3z M85.5,45c0.2,0,0.3-0.1,0.4-0.2
		c0.1-0.1,0.2-0.2,0.3-0.4c0.1-0.2,0.1-0.4,0.1-0.6V42c-0.1,0.1-0.3,0.2-0.5,0.3s-0.3,0.1-0.5,0.2c-0.4,0.1-0.8,0.3-1,0.5
		S84,43.5,84,43.9c0,0.3,0.1,0.6,0.2,0.8s0.3,0.4,0.6,0.4C85.2,45.1,85.4,45,85.5,45z"/>
	<path class="st2" d="M90.6,45.9c-0.5-0.4-0.8-1.2-0.8-2.2v-0.2h2v0.1c0,0.5,0.1,0.8,0.3,1.1c0.2,0.3,0.5,0.4,0.9,0.4
		c0.3,0,0.6-0.1,0.8-0.3s0.3-0.5,0.3-0.9S94,43.1,93.8,43c-0.2-0.2-0.4-0.3-0.8-0.3h-0.3c-0.2,0-0.3,0-0.4,0v-1.5c0.1,0,0.2,0,0.4,0
		H93c0.3,0,0.5-0.1,0.7-0.3S94,40.4,94,40c0-0.3-0.1-0.6-0.3-0.7S93.2,39,92.9,39c-0.4,0-0.6,0.1-0.8,0.3c-0.1,0.2-0.2,0.5-0.2,0.9
		v0.1h-2v-0.1c0-0.5,0.1-0.9,0.2-1.2s0.4-0.6,0.6-0.8c0.3-0.2,0.6-0.4,1-0.4s0.8-0.1,1.2-0.1c1,0,1.7,0.2,2.2,0.6
		c0.5,0.4,0.7,1,0.7,1.7c0,0.2,0,0.4-0.1,0.6c-0.1,0.2-0.1,0.4-0.2,0.6c-0.1,0.2-0.2,0.3-0.4,0.5s-0.3,0.2-0.6,0.3
		c0.5,0.1,0.9,0.3,1.1,0.6S96,43.4,96,44c0,0.5-0.1,0.9-0.2,1.2c-0.2,0.3-0.4,0.6-0.7,0.8c-0.3,0.2-0.6,0.4-1,0.5s-0.8,0.2-1.3,0.2
		C91.9,46.5,91.1,46.3,90.6,45.9z"/>
	<path class="st2" d="M98.2,46.3c-0.3-0.1-0.5-0.3-0.6-0.6c-0.2-0.2-0.3-0.5-0.4-0.8s-0.1-0.6-0.1-0.9c0-0.4,0-0.8,0.1-1
		c0.1-0.3,0.2-0.5,0.4-0.8s0.4-0.4,0.7-0.5c0.3-0.1,0.6-0.3,1-0.4l1.2-0.3c0.3-0.1,0.6-0.2,0.7-0.4c0.1-0.1,0.2-0.4,0.2-0.7
		s-0.1-0.6-0.2-0.8c-0.2-0.2-0.4-0.3-0.8-0.3c-0.3,0-0.6,0.1-0.8,0.3c-0.2,0.2-0.3,0.5-0.3,0.8v0.2h-2v-0.2c0-0.5,0.1-0.9,0.2-1.2
		c0.2-0.3,0.4-0.6,0.6-0.8c0.3-0.2,0.6-0.4,1-0.4s0.8-0.1,1.2-0.1c0.7,0,1.2,0.1,1.6,0.2c0.4,0.1,0.7,0.3,1,0.5
		c0.2,0.2,0.4,0.5,0.5,0.8s0.1,0.7,0.1,1.1v4.5c0,0.4,0,0.7,0.1,0.9c0,0.2,0.1,0.5,0.2,0.7h-2.1c-0.1-0.1-0.1-0.3-0.2-0.4
		c0-0.2-0.1-0.3-0.1-0.5l0,0c-0.3,0.4-0.6,0.7-0.9,0.9c-0.3,0.1-0.8,0.2-1.3,0.2C98.8,46.5,98.5,46.5,98.2,46.3z M100.6,45
		c0.2,0,0.3-0.1,0.4-0.2c0.1-0.1,0.2-0.2,0.3-0.4c0.1-0.2,0.1-0.4,0.1-0.6V42c-0.1,0.1-0.3,0.2-0.5,0.3s-0.3,0.1-0.5,0.2
		c-0.4,0.1-0.8,0.3-1,0.5s-0.3,0.5-0.3,0.9c0,0.3,0.1,0.6,0.2,0.8s0.3,0.4,0.6,0.4C100.2,45.1,100.4,45,100.6,45z"/>
</g>
<g>
	<g>
		<g>
			<path class="st2" d="M42.1,14.3h-4.2c0,1.6,0,2.1,0,2.8c0,1.6-1.3,2.9-2.9,2.9h-9.5c-1.6,0-2.9-1.3-2.9-2.9c0-0.7,0-1.2,0-2.8
				h-4.2c-0.6,0-1.2,0.5-1.2,1.2v30.7c0,0.6,0.5,1.2,1.2,1.2h23.7c0.6,0,1.2-0.5,1.2-1.2V15.4C43.2,14.8,42.7,14.3,42.1,14.3z
				 M21.9,22.6c-0.5-0.6-0.5-1.2,0-1.6c0.5-0.5,1-0.3,1.4,0.2l1.2,1.5l1.2-1.6c0.3-0.4,1-0.6,1.4-0.1s0.5,0.8,0,1.6
				c0,0-0.4,0.5-0.8,1.2c-0.3,0.5-1.2,1.4-1.7,1.4c-0.6,0-1.4-1.1-1.8-1.5C22.2,23.1,21.9,22.6,21.9,22.6z M21.9,31.3
				c-0.4-0.6-0.5-1.2,0-1.6c0.5-0.5,1-0.5,1.5,0.1l1,1.7l1.1-1.7c0.5-0.7,1.1-0.5,1.5-0.1c0.5,0.5,0.5,0.8,0,1.6
				c0,0-0.6,0.8-0.8,1.1c-0.3,0.5-1.2,1.5-1.7,1.5s-1.5-1-1.8-1.5C22.4,32.1,21.9,31.3,21.9,31.3z M24.6,44.2
				c-1.7,0-3.2-1.4-3.2-3.2c0-1.7,1.4-3.2,3.2-3.2c1.8,0,3.2,1.4,3.2,3.2C27.8,42.7,26.4,44.2,24.6,44.2z M38.6,42.1h-7.7
				c-0.6,0-1.2-0.5-1.2-1.2c0-0.6,0.5-1.2,1.2-1.2h7.7c0.6,0,1.2,0.5,1.2,1.2C39.7,41.6,39.2,42.1,38.6,42.1z M38.6,33.4h-7.7
				c-0.6,0-1.2-0.5-1.2-1.2c0-0.6,0.5-1.2,1.2-1.2h7.7c0.6,0,1.2,0.5,1.2,1.2C39.7,32.9,39.2,33.4,38.6,33.4z M38.6,24.7h-7.7
				c-0.6,0-1.2-0.5-1.2-1.2c0-0.6,0.5-1.2,1.2-1.2h7.7c0.6,0,1.2,0.5,1.2,1.2C39.7,24.2,39.2,24.7,38.6,24.7z"/>
		</g>
	</g>
	<g>
		<g>
			<path class="st2" d="M34.1,13.6h-7.7c-0.3,0-0.5,0.2-0.5,0.5v3.2c0,0.3,0.2,0.5,0.5,0.5h7.7c0.3,0,0.5-0.2,0.5-0.5v-3.2
				C34.6,13.8,34.3,13.6,34.1,13.6z"/>
		</g>
	</g>
</g>
</svg>
