<?xml version="1.0" encoding="utf-8"?>
<!-- Generator: Adobe Illustrator 21.1.0, SVG Export Plug-In . SVG Version: 6.00 Build 0)  -->
<svg version="1.1" id="Слой_1" xmlns="http://www.w3.org/2000/svg" xmlns:xlink="http://www.w3.org/1999/xlink" x="0px" y="0px"
	 viewBox="0 0 162.5 62.3" style="enable-background:new 0 0 162.5 62.3;" xml:space="preserve">
<style type="text/css">
	.st0{fill:#45C3E5;}
	.st1{fill:#FFFFFF;}
</style>
<polygon class="st0" points="22,0 11,0 162.5,0 162.5,62.3 0,62.3 0,22 "/>
<g>
	<path class="st1" d="M27,13.7l0.4,1.4h1.4c0.2,0,0.2,0.2,0.1,0.4l-1.2,0.9l0.4,1.4c0.1,0.2-0.1,0.3-0.3,0.2l-1-1l-1.2,0.9
		c-0.1,0.1-0.4-0.1-0.3-0.2l0.4-1.4l-1.2-0.9c-0.1-0.1-0.1-0.4,0.1-0.4H26l0.4-1.4C26.7,13.5,27,13.5,27,13.7z"/>
	<path class="st1" d="M27,42.9l0.4,1.4h1.4c0.2,0,0.2,0.2,0.1,0.4l-1.2,0.9l0.4,1.4c0.1,0.2-0.1,0.3-0.3,0.2l-1.1-0.9l-1.2,0.9
		c-0.1,0.1-0.4-0.1-0.3-0.2l0.4-1.4l-1.2-0.9c-0.1-0.1-0.1-0.4,0.1-0.4h1.4l0.4-1.4C26.7,42.8,27,42.8,27,42.9z"/>
	<path class="st1" d="M41.6,28.3l0.4,1.4h1.4c0.2,0,0.2,0.2,0.1,0.4L42.3,31l0.4,1.4c0.1,0.2-0.1,0.3-0.3,0.2l-1.2-0.9L40,32.6
		c-0.1,0.1-0.4-0.1-0.3-0.2l0.4-1.4l-0.9-1c-0.1-0.1-0.1-0.4,0.1-0.4h1.4l0.4-1.4C41.3,28.1,41.6,28.1,41.6,28.3z"/>
	<path class="st1" d="M12.4,28.3l0.4,1.4h1.4c0.2,0,0.2,0.2,0.1,0.4L13.2,31l0.4,1.4c0.1,0.2-0.1,0.3-0.3,0.2l-1.2-0.9L11,32.5
		c-0.1,0.1-0.4-0.1-0.3-0.2l0.4-1.4L10,30c-0.1-0.1-0.1-0.4,0.1-0.4h1.4l0.4-1.4C12.1,28.1,12.3,28.1,12.4,28.3z"/>
	<path class="st1" d="M14.6,20.6L15,22h1.4c0.2,0,0.2,0.2,0.1,0.4l-1.1,0.9l0.4,1.4c0.1,0.2-0.1,0.3-0.3,0.2L14.4,24l-1.2,0.9
		c-0.1,0.1-0.4-0.1-0.3-0.2l0.4-1.4l-1.2-0.9C12,22.3,12,22,12.2,22h1.4l0.4-1.4C14.3,20.5,14.5,20.5,14.6,20.6z"/>
	<path class="st1" d="M39.9,35.3l0.4,1.4h1.4c0.2,0,0.2,0.2,0.1,0.4L40.6,38l0.4,1.4c0.1,0.2-0.1,0.3-0.3,0.2l-1.2-0.9l-1.2,0.9
		c-0.1,0.1-0.4-0.1-0.3-0.2l0.4-1.4l-1-1c-0.1-0.1-0.1-0.4,0.1-0.4H39l0.4-1.4C39.6,35.1,39.8,35.1,39.9,35.3z"/>
	<path class="st1" d="M34.5,15.3l0.4,1.4h1.4c0.2,0,0.2,0.2,0.1,0.4L35.2,18l0.4,1.4c0.1,0.2-0.1,0.3-0.3,0.2l-1.2-0.9l-1.2,0.9
		c-0.1,0.1-0.4-0.1-0.3-0.2L33,18l-1.2-0.9c-0.1-0.1,0-0.4,0.2-0.4h1.4l0.4-1.4C34.2,15.2,34.5,15.2,34.5,15.3z"/>
	<path class="st1" d="M19.9,40.7l0.4,1.4h1.4c0.2,0,0.2,0.2,0.1,0.4l-1.1,0.8l0.4,1.4c0.1,0.2-0.1,0.3-0.3,0.2l-1-0.9l-1.2,0.9
		c-0.1,0.1-0.4-0.1-0.3-0.2l0.4-1.4l-1.2-0.9c-0.1-0.1-0.1-0.4,0.1-0.4H19l0.4-1.4C19.6,40.5,19.9,40.5,19.9,40.7z"/>
	<path class="st1" d="M39.5,20.6L39.1,22h-1.4c-0.2,0-0.2,0.2-0.1,0.4l1.2,0.9l-0.4,1.4c-0.1,0.2,0.1,0.3,0.3,0.2l1.2-0.9l1.2,0.9
		c0.1,0.1,0.4-0.1,0.3-0.2L41,23.3l1.2-0.9c0.1-0.1,0.1-0.4-0.1-0.4h-1.4L40,20.6C39.8,20.5,39.6,20.5,39.5,20.6z"/>
	<path class="st1" d="M14.2,35.3l-0.4,1.4h-1.4c-0.2,0-0.2,0.2-0.1,0.4l1.2,0.9L13,39.3c-0.1,0.2,0.1,0.3,0.3,0.2l1.2-0.9l1.2,0.9
		c0.1,0.1,0.4-0.1,0.3-0.2l-0.5-1.4l1.2-0.9c0.1-0.1,0.1-0.4-0.1-0.4h-1.4l-0.4-1.4C14.5,35.1,14.3,35.1,14.2,35.3z"/>
	<path class="st1" d="M19.6,15.3l-0.5,1.4h-1.4c-0.2,0-0.2,0.2-0.1,0.4l1.2,0.9l-0.4,1.4c-0.1,0.2,0.1,0.3,0.3,0.2l1.2-0.9l1.2,0.9
		c0.1,0.1,0.4-0.1,0.3-0.2L21,18l1.2-0.9c0.1-0.1,0.1-0.4-0.1-0.4h-1.5l-0.4-1.4C19.9,15.2,19.6,15.2,19.6,15.3z"/>
	<path class="st1" d="M34.2,40.7L33.7,42h-1.4c-0.2,0-0.2,0.2-0.1,0.4l1.1,0.8l-0.4,1.4c-0.1,0.2,0.1,0.3,0.3,0.2l1.2-0.9l1.2,0.9
		c0.1,0.1,0.4-0.1,0.3-0.2l-0.4-1.4l1.2-0.9c0.1-0.1,0.1-0.4-0.1-0.4H35l-0.5-1.3C34.5,40.5,34.2,40.5,34.2,40.7z"/>
</g>
<g>
	<path class="st1" d="M25.5,30.9h-3.1V33H26v1.3h-5.2v-7.8H26v1.3h-3.6v1.8h3.1V30.9z"/>
	<path class="st1" d="M32.8,26.5v5.1c0,0.9-0.2,1.5-0.8,2c-0.6,0.5-1.2,0.7-2.2,0.7s-1.6-0.2-2.2-0.7s-0.8-1.1-0.8-2v-5.2h1.6v5.1
		c0,0.5,0.1,0.9,0.4,1.1c0.2,0.2,0.6,0.4,1,0.4c0.9,0,1.4-0.5,1.4-1.4v-5.2L32.8,26.5L32.8,26.5z"/>
</g>
<g>
	<path class="st1" d="M61.7,14.7V22l2.8-7.3H67v11.4h-2.2v-7.3L62,26.1h-2.5V14.7H61.7z"/>
	<path class="st1" d="M70.7,17.5v3.2h2.1v-3.2H75v8.6h-2.2v-3.7h-2.1v3.7h-2.2v-8.6H70.7z"/>
	<path class="st1" d="M78,26.1c-0.4-0.1-0.8-0.4-1-0.7c-0.3-0.3-0.5-0.8-0.6-1.4s-0.2-1.3-0.2-2.2c0-0.9,0.1-1.6,0.3-2.2
		c0.2-0.6,0.4-1,0.7-1.4c0.3-0.3,0.7-0.6,1.1-0.7s0.9-0.2,1.4-0.2c1,0,1.8,0.3,2.3,0.9s0.8,1.4,0.8,2.4h-2.1c0-0.2,0-0.4,0-0.6
		s-0.1-0.4-0.1-0.6s-0.2-0.3-0.3-0.4c-0.1-0.1-0.3-0.2-0.5-0.2c-0.3,0-0.5,0.1-0.7,0.2s-0.3,0.3-0.4,0.5s-0.1,0.5-0.2,0.9
		s0,0.8,0,1.3s0,1,0,1.4s0.1,0.7,0.2,0.9c0.1,0.2,0.2,0.4,0.4,0.5c0.2,0.1,0.4,0.2,0.6,0.2c0.4,0,0.6-0.2,0.8-0.5s0.3-0.8,0.3-1.5
		h2.1c0,1.1-0.3,2-0.8,2.6s-1.3,0.9-2.5,0.9C78.9,26.3,78.4,26.3,78,26.1z"/>
	<path class="st1" d="M83.2,19.2v-1.7h6.6v1.7h-2.2v6.9h-2.2v-6.9H83.2z"/>
	<path class="st1" d="M92.7,17.5v0.9l0,0c0.2-0.4,0.5-0.7,0.8-0.9c0.3-0.2,0.7-0.3,1.1-0.3c0.9,0,1.6,0.4,2,1.1s0.6,1.9,0.6,3.5
		s-0.2,2.7-0.6,3.4c-0.4,0.7-1.1,1-2,1c-0.4,0-0.8-0.1-1.1-0.2s-0.6-0.4-0.8-0.7l0,0v3.6h-2.2V17.5H92.7z M94.9,24
		c0.1-0.5,0.2-1.2,0.2-2.1s-0.1-1.6-0.2-2.1C94.8,19.2,94.5,19,94,19s-0.8,0.2-1,0.7c-0.1,0.5-0.2,1.2-0.2,2.1s0.1,1.6,0.2,2.1
		s0.5,0.7,1,0.7C94.5,24.7,94.8,24.4,94.9,24z"/>
	<path class="st1" d="M98.6,27.3c0.2,0,0.4,0,0.6,0c0.4,0,0.7-0.1,0.9-0.3c0.2-0.2,0.3-0.5,0.3-0.8L98,17.5h2.3l1.3,6l0,0l1.1-6h2.2
		l-2.1,8c-0.2,0.7-0.4,1.3-0.6,1.7c-0.2,0.4-0.4,0.8-0.6,1s-0.5,0.4-0.9,0.5s-0.8,0.1-1.3,0.1h-0.9L98.6,27.3L98.6,27.3z"/>
	<path class="st1" d="M108.9,17.5l1.3,5.8l1.3-5.8h3.2v8.6h-2.1V20l-1.5,6.1h-1.8l-1.5-6.1v6.1h-2.1v-8.6H108.9z"/>
	<path class="st1" d="M117.3,25.9c-0.4-0.3-0.8-0.6-1-1.1c-0.2-0.4-0.3-0.9-0.4-1.5c0-0.5-0.1-1.1-0.1-1.6c0-0.6,0-1.1,0.1-1.7
		c0.1-0.5,0.2-1,0.5-1.4s0.6-0.7,1-1c0.4-0.2,1-0.4,1.8-0.4c0.6,0,1.2,0.1,1.6,0.3c0.4,0.2,0.7,0.5,1,0.9c0.2,0.4,0.4,0.8,0.5,1.4
		c0.1,0.5,0.1,1.1,0.1,1.8v0.5H118v0.7c0,0.3,0,0.5,0.1,0.7c0,0.2,0.1,0.5,0.2,0.6c0.1,0.2,0.2,0.3,0.3,0.4c0.1,0.1,0.3,0.2,0.5,0.2
		c0.4,0,0.6-0.1,0.8-0.4c0.2-0.3,0.3-0.7,0.4-1.2h2c0,1-0.3,1.8-0.8,2.3s-1.3,0.8-2.3,0.8C118.4,26.3,117.8,26.2,117.3,25.9z
		 M120.3,20c0-0.3-0.1-0.5-0.2-0.6c-0.1-0.2-0.2-0.3-0.3-0.4c-0.1-0.1-0.3-0.1-0.6-0.1c-0.2,0-0.4,0.1-0.6,0.2
		c-0.1,0.1-0.3,0.2-0.3,0.4s-0.1,0.3-0.2,0.6c0,0.2-0.1,0.4-0.1,0.6V21h2.3C120.3,20.5,120.3,20.2,120.3,20z"/>
	<path class="st1" d="M125.8,17.5v3.2h2.1v-3.2h2.2v8.6h-2.2v-3.7h-2.1v3.7h-2.2v-8.6H125.8z"/>
	<path class="st1" d="M130.9,19.2v-1.7h6.6v1.7h-2.2v6.9h-2.2v-6.9H130.9z"/>
	<path class="st1" d="M140.5,17.5v2.9h1.2c0.4,0,0.9,0,1.2,0.1c0.4,0.1,0.7,0.3,0.9,0.5c0.3,0.2,0.5,0.5,0.6,0.9s0.2,0.8,0.2,1.3
		c0,1-0.3,1.8-0.8,2.2s-1.2,0.7-2.1,0.7h-3.4v-8.6H140.5z M142.2,24.2c0.2-0.2,0.3-0.5,0.3-0.9c0-0.5-0.1-0.8-0.3-0.9
		c-0.2-0.2-0.5-0.3-0.9-0.3h-0.8v2.4h0.7C141.7,24.5,142,24.4,142.2,24.2z M147.5,17.5v8.6h-2.2v-8.6H147.5z"/>
	<path class="st1" d="M61.5,36.7v5.4l2.3-5.4h2.3v8.6H64V40l-2.3,5.4h-2.3v-8.6h2.1V36.7z"/>
	<path class="st1" d="M74.6,36.7l1.3,5.8l1.3-5.8h3.2v8.6h-2.1v-6.1l-1.5,6.1H75l-1.5-6.1v6.1h-2.1v-8.6
		C71.4,36.7,74.6,36.7,74.6,36.7z"/>
	<path class="st1" d="M82.8,45.3c-0.3-0.1-0.5-0.3-0.6-0.6c-0.2-0.2-0.3-0.5-0.4-0.8s-0.1-0.6-0.1-0.9c0-0.4,0-0.8,0.1-1
		c0.1-0.3,0.2-0.5,0.4-0.8c0.2-0.2,0.4-0.4,0.7-0.5s0.6-0.3,1-0.4l1.2-0.3c0.3-0.1,0.6-0.2,0.7-0.4s0.2-0.4,0.2-0.7
		s-0.1-0.6-0.2-0.8c-0.2,0-0.5-0.1-0.8-0.1s-0.6,0.1-0.8,0.3c-0.2,0.2-0.3,0.5-0.3,0.8v0.2h-2v-0.2c0-0.5,0.1-0.9,0.2-1.2
		c0.2-0.3,0.4-0.6,0.6-0.8c0.3-0.2,0.6-0.4,1-0.4s0.8-0.1,1.2-0.1c0.7,0,1.2,0.1,1.6,0.2c0.4,0.1,0.7,0.3,1,0.5
		c0.2,0.2,0.4,0.5,0.5,0.8s0.1,0.7,0.1,1.1v4.5c0,0.4,0,0.7,0.1,0.9c0,0.2,0.1,0.5,0.2,0.7h-2.1c-0.1-0.1-0.1-0.3-0.2-0.4
		c0-0.2-0.1-0.3-0.1-0.5l0,0c-0.3,0.4-0.6,0.7-0.9,0.9c-0.3,0.1-0.8,0.2-1.3,0.2C83.4,45.5,83,45.5,82.8,45.3z M85.1,44
		c0.2,0,0.3-0.1,0.4-0.2c0.1-0.1,0.2-0.2,0.3-0.4c0.1-0.2,0.1-0.4,0.1-0.6V41c-0.1,0.1-0.3,0.2-0.5,0.3s-0.3,0.1-0.5,0.2
		c-0.4,0.1-0.8,0.3-1,0.5s-0.3,0.5-0.3,0.9c0,0.3,0.1,0.6,0.2,0.8s0.3,0.4,0.6,0.4C84.8,44.1,84.9,44,85.1,44z"/>
	<path class="st1" d="M89,38.4v-1.7h6.6v1.7h-2.2v6.9h-2.2v-6.9H89z"/>
	<path class="st1" d="M97.5,45.1c-0.4-0.3-0.8-0.6-1-1.1c-0.2-0.4-0.3-0.9-0.4-1.5S96,41.5,96,41c0-0.6,0-1.1,0.1-1.7
		c0.1-0.5,0.2-1,0.5-1.4s0.6-0.7,1-1c0.4-0.2,1-0.4,1.8-0.4c0.6,0,1.2,0.1,1.6,0.3s0.7,0.5,1,0.9c0.2,0.4,0.4,0.8,0.5,1.4
		c0.1,0.5,0.1,1.1,0.1,1.8v0.5h-4.4v0.7c0,0.3,0,0.5,0.1,0.7c0,0.2,0.1,0.5,0.2,0.6c0.1,0.2,0.2,0.3,0.3,0.4s0.3,0.2,0.5,0.2
		c0.4,0,0.6-0.1,0.8-0.4c0.2-0.3,0.3-0.7,0.4-1.2h2c0,1-0.3,1.8-0.8,2.3s-1.3,0.8-2.3,0.8C98.6,45.5,97.9,45.4,97.5,45.1z
		 M100.4,39.2c0-0.3-0.1-0.5-0.2-0.6c-0.1-0.2-0.2-0.3-0.3-0.4c-0.1-0.1-0.3-0.1-0.6-0.1c-0.2,0-0.4,0.1-0.6,0.2
		c-0.1,0.1-0.3,0.2-0.3,0.4c-0.1,0.2-0.1,0.3-0.2,0.6c0,0.2-0.1,0.4-0.1,0.6v0.3h2.3C100.5,39.7,100.5,39.4,100.4,39.2z"/>
	<path class="st1" d="M105.9,36.7v0.9l0,0c0.2-0.4,0.5-0.7,0.8-0.9s0.7-0.3,1.1-0.3c0.9,0,1.6,0.4,2,1.1c0.4,0.7,0.6,1.9,0.6,3.5
		s-0.2,2.7-0.6,3.4s-1.1,1-2,1c-0.4,0-0.8-0.1-1.1-0.2c-0.3-0.2-0.6-0.4-0.8-0.7l0,0v3.6h-2.2V36.7H105.9z M108.1,43.2
		c0.1-0.5,0.2-1.2,0.2-2.1c0-0.9-0.1-1.6-0.2-2.1s-0.5-0.7-0.9-0.7c-0.5,0-0.8,0.2-1,0.7c-0.1,0.5-0.2,1.2-0.2,2.1
		c0,0.9,0.1,1.6,0.2,2.1s0.5,0.7,1,0.7C107.6,43.9,107.9,43.6,108.1,43.2z"/>
	<path class="st1" d="M113.8,36.7v5.4l2.3-5.4h2.3v8.6h-2.1V40l-2.3,5.4h-2.3v-8.6h2.1V36.7z"/>
	<path class="st1" d="M120.8,45.3c-0.3-0.1-0.5-0.3-0.6-0.6s-0.3-0.5-0.4-0.8s-0.1-0.6-0.1-0.9c0-0.4,0-0.8,0.1-1
		c0.1-0.3,0.2-0.5,0.4-0.8c0.2-0.2,0.4-0.4,0.7-0.5s0.6-0.3,1-0.4l1.2-0.3c0.3-0.1,0.6-0.2,0.7-0.4s0.2-0.4,0.2-0.7
		s-0.1-0.6-0.2-0.8c-0.2-0.2-0.4-0.3-0.8-0.3c-0.3,0-0.6,0.1-0.8,0.3c-0.2,0.2-0.3,0.5-0.3,0.8v0.2h-2v-0.2c0-0.5,0.1-0.9,0.2-1.2
		c0.2-0.3,0.4-0.6,0.6-0.8c0.3-0.2,0.6-0.4,1-0.4s0.8-0.1,1.2-0.1c0.7,0,1.2,0.1,1.6,0.2c0.4,0.1,0.7,0.3,1,0.5
		c0.2,0.2,0.4,0.5,0.5,0.8s0.1,0.7,0.1,1.1v4.5c0,0.4,0,0.7,0.1,0.9c0,0.2,0.1,0.5,0.2,0.7h-2.1c-0.1-0.1-0.1-0.3-0.2-0.4
		c0-0.2-0.1-0.3-0.1-0.5l0,0c-0.3,0.4-0.6,0.7-0.9,0.9c-0.3,0.1-0.8,0.2-1.3,0.2C121.4,45.5,121.1,45.5,120.8,45.3z M123.1,44
		c0.2,0,0.3-0.1,0.4-0.2c0.1-0.1,0.2-0.2,0.3-0.4c0.1-0.2,0.1-0.4,0.1-0.6V41c-0.1,0.1-0.3,0.2-0.5,0.3s-0.3,0.1-0.5,0.2
		c-0.4,0.1-0.8,0.3-1,0.5s-0.3,0.5-0.3,0.9c0,0.3,0.1,0.6,0.2,0.8s0.3,0.4,0.6,0.4C122.8,44.1,123,44,123.1,44z"/>
	<path class="st1" d="M127.5,45.4c-0.2,0-0.4-0.1-0.5-0.1v-1.6c0.1,0,0.1,0,0.2,0s0.1,0,0.2,0s0.3,0,0.4-0.1c0.1,0,0.2-0.1,0.3-0.3
		c0.1-0.2,0.2-0.4,0.2-0.7s0.1-0.7,0.2-1.2s0.1-1.2,0.1-1.9c0-0.8,0-1.7,0-2.8h6v8.6h-2.2v-6.9h-1.7c0,1.6-0.1,2.8-0.2,3.8
		s-0.3,1.6-0.5,2.1s-0.5,0.8-0.8,1s-0.7,0.2-1.2,0.2C127.9,45.5,127.7,45.5,127.5,45.4z"/>
	<path class="st1" d="M138.3,36.7v2.9h1.2c0.4,0,0.9,0,1.2,0.1c0.4,0.1,0.7,0.3,0.9,0.5c0.3,0.2,0.5,0.5,0.6,0.9s0.2,0.8,0.2,1.3
		c0,1-0.3,1.8-0.8,2.2c-0.5,0.5-1.2,0.7-2.1,0.7h-3.4v-8.6C136.1,36.7,138.3,36.7,138.3,36.7z M140,43.4c0.2-0.2,0.3-0.5,0.3-0.9
		c0-0.5-0.1-0.8-0.3-0.9c-0.2-0.2-0.5-0.3-0.9-0.3h-0.8v2.4h0.7C139.5,43.7,139.8,43.6,140,43.4z M145.3,36.7v8.6h-2.2v-8.6
		C143.1,36.7,145.3,36.7,145.3,36.7z"/>
</g>
</svg>
