<?xml version="1.0" encoding="utf-8"?>
<!-- Generator: Adobe Illustrator 21.1.0, SVG Export Plug-In . SVG Version: 6.00 Build 0)  -->
<svg version="1.1" id="Слой_1" xmlns="http://www.w3.org/2000/svg" xmlns:xlink="http://www.w3.org/1999/xlink" x="0px" y="0px"
	 viewBox="0 0 162.5 62.3" style="enable-background:new 0 0 162.5 62.3;" xml:space="preserve">
<style type="text/css">
	.st0{fill:#45C3E5;}
	.st1{fill:#FFFFFF;}
</style>
<polygon class="st0" points="21.5,0 162.5,0 162.5,62.3 0,62.3 0,22 "/>
<g>
	<path class="st1" d="M54.8,14.7v4.4h2.7v-4.4h2.3v11.4h-2.3V21h-2.7v5.1h-2.3V14.7H54.8z"/>
	<path class="st1" d="M62.1,26.1c-0.3-0.1-0.5-0.3-0.6-0.6c-0.2-0.2-0.3-0.5-0.4-0.8C61,24.4,61,24.1,61,23.8c0-0.4,0-0.8,0.1-1
		s0.2-0.5,0.4-0.8c0.2-0.2,0.4-0.4,0.7-0.5s0.6-0.3,1-0.4l1.2-0.3c0.3-0.1,0.6-0.2,0.7-0.4s0.2-0.4,0.2-0.7c0-0.3-0.1-0.6-0.2-0.8
		c-0.2-0.2-0.4-0.3-0.8-0.3c-0.3,0-0.6,0.1-0.8,0.3s-0.3,0.5-0.3,0.8v0.2h-2V20c0-0.5,0.1-0.9,0.2-1.2c0.2-0.3,0.4-0.6,0.6-0.8
		c0.3-0.2,0.6-0.4,1-0.4c0.4-0.1,0.8-0.1,1.2-0.1c0.7,0,1.2,0.1,1.6,0.2s0.7,0.3,1,0.5c0.2,0.2,0.4,0.5,0.5,0.8s0.1,0.7,0.1,1.1v4.5
		c0,0.4,0,0.7,0.1,0.9s0.1,0.5,0.2,0.7h-2.1c-0.1-0.1-0.1-0.3-0.2-0.4c0-0.2-0.1-0.3-0.1-0.5l0,0c-0.3,0.4-0.6,0.7-0.9,0.9
		c-0.3,0.1-0.8,0.2-1.3,0.2C62.7,26.3,62.4,26.3,62.1,26.1z M64.4,24.8c0.2,0,0.3-0.1,0.4-0.2s0.2-0.2,0.3-0.4
		c0.1-0.2,0.1-0.4,0.1-0.6v-1.7c-0.1,0.1-0.3,0.2-0.5,0.3c-0.2,0.1-0.3,0.1-0.5,0.2c-0.4,0.1-0.8,0.3-1,0.5s-0.3,0.5-0.3,0.9
		c0,0.3,0.1,0.6,0.2,0.8c0.1,0.2,0.3,0.4,0.6,0.4C64.1,24.9,64.3,24.8,64.4,24.8z"/>
	<path class="st1" d="M71.2,17.5v6.9H73v-6.9h2.2v6.9H77v-6.9h2.2v8.6H69v-8.6H71.2z"/>
	<path class="st1" d="M82.9,17.5V23l2.3-5.4h2.3v8.6h-2.1v-5.4l-2.3,5.4h-2.3v-8.6h2.1V17.5z"/>
	<path class="st1" d="M59,36.7v8.6h-2.2v-6.9h-2.1v6.9h-2.2v-8.6C52.5,36.7,59,36.7,59,36.7z"/>
	<path class="st1" d="M62.5,36.7v0.9l0,0c0.2-0.4,0.5-0.7,0.8-0.9s0.7-0.3,1.1-0.3c0.9,0,1.6,0.4,2,1.1c0.4,0.7,0.6,1.9,0.6,3.5
		s-0.2,2.7-0.6,3.4s-1.1,1-2,1c-0.4,0-0.8-0.1-1.1-0.2c-0.3-0.2-0.6-0.4-0.8-0.7l0,0v3.6h-2.2V36.7H62.5z M64.7,43.2
		C64.9,42.7,65,42,65,41c0-0.9-0.1-1.6-0.2-2.1s-0.5-0.7-0.9-0.7c-0.5,0-0.8,0.2-1,0.7c-0.1,0.5-0.2,1.2-0.2,2.1
		c0,0.9,0.1,1.6,0.2,2.1c0.1,0.5,0.5,0.7,1,0.7C64.3,43.9,64.6,43.6,64.7,43.2z"/>
	<path class="st1" d="M69.6,45.1c-0.4-0.3-0.8-0.6-1-1.1c-0.2-0.4-0.3-0.9-0.4-1.5s-0.1-1.1-0.1-1.6c0-0.6,0-1.1,0.1-1.7
		c0.1-0.5,0.2-1,0.5-1.4s0.6-0.7,1-1c0.4-0.2,1-0.4,1.8-0.4c0.6,0,1.2,0.1,1.6,0.3s0.7,0.5,1,0.9c0.2,0.4,0.4,0.8,0.5,1.4
		c0.1,0.5,0.1,1.1,0.1,1.8v0.5h-4.4V42c0,0.3,0,0.5,0.1,0.7c0,0.2,0.1,0.5,0.2,0.6c0.1,0.2,0.2,0.3,0.3,0.4s0.3,0.2,0.5,0.2
		c0.4,0,0.6-0.1,0.8-0.4c0.2-0.3,0.3-0.7,0.4-1.2h2c0,1-0.3,1.8-0.8,2.3s-1.3,0.8-2.3,0.8C70.6,45.5,70,45.4,69.6,45.1z M72.5,39.2
		c0-0.3-0.1-0.5-0.2-0.6c-0.1-0.2-0.2-0.3-0.3-0.4c-0.1-0.1-0.3-0.1-0.6-0.1c-0.2,0-0.4,0.1-0.6,0.2c-0.1,0.1-0.3,0.2-0.3,0.4
		c-0.1,0.2-0.1,0.3-0.2,0.6c0,0.2-0.1,0.4-0.1,0.6v0.3h2.3C72.6,39.7,72.5,39.4,72.5,39.2z"/>
	<path class="st1" d="M77.9,36.7v5.4l2.3-5.4h2.3v8.6h-2.1V40l-2.3,5.4h-2.3v-8.6h2.1V36.7z"/>
	<path class="st1" d="M87.2,36.7l1.3,5.8l1.3-5.8H93v8.6h-2v-6.1l-1.5,6.1h-1.8l-1.5-6.1v6.1h-2.1v-8.6
		C84.1,36.7,87.2,36.7,87.2,36.7z"/>
	<path class="st1" d="M94.5,46.5c0.2,0,0.4,0,0.6,0c0.4,0,0.7-0.1,0.9-0.3c0.2-0.2,0.3-0.5,0.3-0.8l-2.4-8.6h2.3l1.3,6l0,0l1.1-6
		h2.2l-2.1,8c-0.2,0.7-0.4,1.3-0.6,1.7s-0.4,0.8-0.6,1S97,47.9,96.6,48s-0.8,0.1-1.3,0.1h-0.9L94.5,46.5L94.5,46.5z"/>
	<path class="st1" d="M101.6,45.3v-8.6h2.2v6.9h1.8v-6.9h2.2v6.9h1.8v-6.9h2.2v6.9h1v3.7h-2v-2H101.6z"/>
	<path class="st1" d="M114.9,45.1c-0.4-0.3-0.8-0.6-1-1.1c-0.2-0.4-0.3-0.9-0.4-1.5s-0.1-1.1-0.1-1.6c0-0.6,0-1.1,0.1-1.7
		c0.1-0.5,0.2-1,0.5-1.4s0.6-0.7,1-1c0.4-0.2,1-0.4,1.8-0.4c0.6,0,1.2,0.1,1.6,0.3s0.7,0.5,1,0.9c0.2,0.4,0.4,0.8,0.5,1.4
		c0.1,0.5,0.1,1.1,0.1,1.8v0.5h-4.4V42c0,0.3,0,0.5,0.1,0.7c0,0.2,0.1,0.5,0.2,0.6c0.1,0.2,0.2,0.3,0.3,0.4s0.3,0.2,0.5,0.2
		c0.4,0,0.6-0.1,0.8-0.4c0.2-0.3,0.3-0.7,0.4-1.2h2c0,1-0.3,1.8-0.8,2.3s-1.3,0.8-2.3,0.8C116,45.5,115.4,45.4,114.9,45.1z
		 M117.9,39.2c0-0.3-0.1-0.5-0.2-0.6c-0.1-0.2-0.2-0.3-0.3-0.4c-0.1-0.1-0.3-0.1-0.6-0.1c-0.2,0-0.4,0.1-0.6,0.2
		c-0.1,0.1-0.3,0.2-0.3,0.4c-0.1,0.2-0.1,0.3-0.2,0.6c0,0.2-0.1,0.4-0.1,0.6v0.3h2.3C117.9,39.7,117.9,39.4,117.9,39.2z"/>
	<path class="st1" d="M122.7,45.3c-0.4-0.1-0.8-0.4-1-0.7c-0.3-0.3-0.5-0.8-0.6-1.4s-0.2-1.3-0.2-2.2s0.1-1.6,0.3-2.2
		c0.2-0.6,0.4-1,0.7-1.4c0.3-0.3,0.7-0.6,1.1-0.7s0.9-0.2,1.4-0.2c1,0,1.8,0.3,2.3,0.9c0.5,0.6,0.8,1.4,0.8,2.4h-2.1
		c0-0.2,0-0.4,0-0.6s-0.1-0.4-0.1-0.6c-0.1-0.2-0.2-0.3-0.3-0.4c-0.1-0.1-0.3-0.2-0.5-0.2c-0.3,0-0.5,0.1-0.7,0.2
		c-0.2,0.1-0.3,0.3-0.4,0.5s-0.1,0.5-0.2,0.9c0,0.4,0,0.8,0,1.3s0,1,0,1.4s0.1,0.7,0.2,0.9s0.2,0.4,0.4,0.5c0.2,0.1,0.4,0.2,0.6,0.2
		c0.4,0,0.6-0.2,0.8-0.5s0.3-0.8,0.3-1.5h2.1c0,1.1-0.3,2-0.8,2.6s-1.3,0.9-2.5,0.9C123.6,45.5,123.1,45.5,122.7,45.3z"/>
	<path class="st1" d="M127.9,38.4v-1.7h6.6v1.7h-2.2v6.9h-2.2v-6.9H127.9z"/>
	<path class="st1" d="M138.9,36.7c0.4,0,0.7,0,1,0.1s0.6,0.2,0.8,0.4s0.4,0.4,0.5,0.7s0.2,0.6,0.2,1c0,0.5-0.1,0.9-0.3,1.2
		s-0.6,0.6-1,0.7c1.1,0.2,1.6,0.9,1.6,2.1c0,0.5-0.1,0.9-0.2,1.2c-0.1,0.3-0.3,0.6-0.6,0.8s-0.6,0.3-0.9,0.4
		c-0.4,0.1-0.7,0.1-1.2,0.1h-3.6v-8.6h3.7V36.7z M138.6,40.1c0.2,0,0.3-0.1,0.4-0.1c0.1-0.1,0.2-0.2,0.3-0.3s0.1-0.3,0.1-0.5
		s0-0.4-0.1-0.5s-0.2-0.2-0.3-0.3s-0.3-0.1-0.4-0.1c-0.2,0-0.4,0-0.6,0h-0.5v1.9h0.5C138.2,40.2,138.4,40.2,138.6,40.1z M139.3,43.6
		c0.2-0.1,0.3-0.4,0.3-0.9c0-0.4-0.1-0.7-0.3-0.9c-0.2-0.1-0.5-0.2-1-0.2h-0.9v2.2h0.9C138.7,43.8,139.1,43.7,139.3,43.6z"/>
	<path class="st1" d="M143.9,45.3c-0.3-0.1-0.5-0.3-0.6-0.6s-0.3-0.5-0.4-0.8c-0.1-0.3-0.1-0.6-0.1-0.9c0-0.4,0-0.8,0.1-1
		c0.1-0.3,0.2-0.5,0.4-0.8c0.2-0.2,0.4-0.4,0.7-0.5s0.6-0.3,1-0.4l1.2-0.3c0.3-0.1,0.6-0.2,0.7-0.4s0.2-0.4,0.2-0.7
		s-0.1-0.6-0.2-0.8c-0.2-0.2-0.4-0.3-0.8-0.3c-0.3,0-0.6,0.1-0.8,0.3s-0.3,0.5-0.3,0.8v0.2h-2v-0.2c0-0.5,0.1-0.9,0.2-1.2
		c0.2-0.3,0.4-0.6,0.6-0.8c0.3-0.2,0.6-0.4,1-0.4s0.8-0.1,1.2-0.1c0.7,0,1.2,0.1,1.6,0.2c0.4,0.1,0.7,0.3,1,0.5
		c0.2,0.2,0.4,0.5,0.5,0.8s0.1,0.7,0.1,1.1v4.5c0,0.4,0,0.7,0.1,0.9c0,0.2,0.1,0.5,0.2,0.7h-2.1c-0.1-0.1-0.1-0.3-0.2-0.4
		c0-0.2-0.1-0.3-0.1-0.5l0,0c-0.3,0.4-0.6,0.7-0.9,0.9c-0.3,0.1-0.8,0.2-1.3,0.2C144.5,45.5,144.1,45.5,143.9,45.3z M146.2,44
		c0.2,0,0.3-0.1,0.4-0.2c0.1-0.1,0.2-0.2,0.3-0.4s0.1-0.4,0.1-0.6V41c-0.1,0.1-0.3,0.2-0.5,0.3s-0.3,0.1-0.5,0.2
		c-0.4,0.1-0.8,0.3-1,0.5s-0.3,0.5-0.3,0.9c0,0.3,0.1,0.6,0.2,0.8c0.1,0.2,0.3,0.4,0.6,0.4C145.9,44.1,146,44,146.2,44z"/>
</g>
<g>
	<path class="st1" d="M28.2,38.8c-1.2,0-2.3-0.2-3.6-0.5v8l2.6-0.9c0.6-0.2,1.5-0.2,2.1,0l2.6,0.9v-8C30.8,38.6,29.5,38.8,28.2,38.8
		z"/>
	<path class="st1" d="M20.7,36.5v10.1c0,0.6,0.5,1,1.1,0.7l1.2-0.4v-9.2C22.2,37.4,21.5,37,20.7,36.5z"/>
	<path class="st1" d="M33.7,46.9l0.9,0.3c0.6,0.2,1-0.1,1-0.7v-10c-0.6,0.4-1.2,0.9-2,1.2L33.7,46.9C33.6,46.9,33.7,46.9,33.7,46.9z
		"/>
	<path class="st1" d="M28.3,37.2c6.3,0,11.4-5.1,11.4-11.4s-5.1-11.5-11.4-11.5s-11.4,5.1-11.4,11.4S21.9,37.2,28.3,37.2z
		 M28.3,16.6c5,0,9.2,4.1,9.2,9.2s-4.1,9.1-9.2,9.1s-9.2-4.1-9.2-9.2S23.2,16.6,28.3,16.6z"/>
	<path class="st1" d="M28.3,33.2c4.1,0,7.4-3.3,7.4-7.4s-3.3-7.5-7.4-7.5s-7.4,3.3-7.4,7.4S24.1,33.2,28.3,33.2z M24.1,24.6
		c0.1-0.3,0.4-0.6,0.7-0.6l1.9-0.2l0.9-1.7c0.1-0.3,0.4-0.5,0.7-0.5c0.3,0,0.6,0.2,0.7,0.5l0.9,1.7l1.9,0.2c0.3,0.1,0.6,0.2,0.7,0.6
		c0.1,0.3,0,0.6-0.2,0.9l-1.4,1.4l0.3,1.9c0.1,0.3-0.1,0.6-0.3,0.8c-0.1,0.1-0.3,0.2-0.5,0.2c-0.1,0-0.2-0.1-0.4-0.1l-1.7-0.9
		l-1.7,0.9c-0.3,0.1-0.6,0.1-0.9-0.1c-0.2-0.2-0.4-0.5-0.3-0.8l0.3-1.9l-1.4-1.4C24,25.2,24,24.9,24.1,24.6z"/>
</g>
</svg>
