<?xml version="1.0" encoding="utf-8"?>
<!-- Generator: Adobe Illustrator 21.1.0, SVG Export Plug-In . SVG Version: 6.00 Build 0)  -->
<svg version="1.1" id="Слой_1" xmlns="http://www.w3.org/2000/svg" xmlns:xlink="http://www.w3.org/1999/xlink" x="0px" y="0px"
	 viewBox="0 0 176 105" style="enable-background:new 0 0 176 105;" xml:space="preserve">
<style type="text/css">
	.st0{fill:#CFF5FF;}
	.st1{enable-background:new    ;}
	.st2{fill:#0065A7;}
	.st3{fill:#45C3E5;}
</style>
<polygon class="st0" points="176.1,104.5 1.1,104.5 1.1,30 31.2,0.5 176.1,0.5 "/>
<g class="st1">
	<path class="st2" d="M29.4,79c-0.5-0.3-0.8-0.6-1.1-1.1c-0.3-0.5-0.4-1.1-0.5-1.7c-0.1-0.7-0.1-1.4-0.1-2.3c0-0.8,0-1.6,0.1-2.2
		c0.1-0.7,0.2-1.3,0.5-1.8s0.6-0.9,1.1-1.1s1.1-0.4,1.9-0.4s1.4,0.1,1.8,0.4s0.8,0.6,1,1s0.4,0.8,0.4,1.2c0.1,0.4,0.1,0.9,0.1,1.3
		h-2.2c0-0.8-0.1-1.3-0.3-1.7c-0.2-0.4-0.5-0.5-1-0.5c-0.3,0-0.5,0.1-0.7,0.2S30.1,70.7,30,71c-0.1,0.3-0.2,0.8-0.2,1.3
		s-0.1,1.2-0.1,1.9c0,0.8,0,1.5,0.1,2s0.1,0.9,0.3,1.2c0.1,0.3,0.3,0.5,0.4,0.6c0.2,0.1,0.4,0.1,0.6,0.1s0.4,0,0.5-0.1
		c0.2-0.1,0.3-0.2,0.4-0.4c0.1-0.2,0.2-0.5,0.3-0.8c0.1-0.4,0.1-0.8,0.1-1.4h2.2c0,0.6,0,1.1-0.1,1.7s-0.3,1-0.5,1.3
		c-0.2,0.4-0.6,0.7-1,0.9c-0.4,0.2-1,0.3-1.7,0.3C30.5,79.4,29.9,79.2,29.4,79z"/>
	<path class="st2" d="M38.1,68.5v4.3l0,0l2.7-4.3h2.3l-2.9,4.6l3.2,6.1H41l-2.2-4.4L38.1,76v3.2H36V68.5H38.1z"/>
	<path class="st2" d="M46.1,68.5v6.9l2.6-6.9H51v10.7h-2v-6.9l-2.6,6.9H44V68.5H46.1z"/>
	<path class="st2" d="M52.6,77.4c0.3-0.5,0.5-1,0.6-1.5s0.3-1,0.3-1.5c0.1-0.5,0.1-1,0.1-1.6c0-0.5,0-1.1,0-1.8v-2.6h6.2v8.9h1v3.9
		h-2v-2.1h-5.1v2.1h-2v-3.9L52.6,77.4L52.6,77.4z M57.8,70.3h-2V72c0,0.4,0,0.9,0,1.3c0,0.5-0.1,1-0.1,1.4c-0.1,0.5-0.1,0.9-0.2,1.4
		c-0.1,0.5-0.2,0.9-0.4,1.2h2.8L57.8,70.3L57.8,70.3z"/>
	<path class="st2" d="M64,68.5v4.3l0,0l2.7-4.3H69l-2.9,4.6l3.2,6.1H67l-2.2-4.4L64,76v3.2h-2.2V68.5H64z"/>
	<path class="st2" d="M71.9,68.5v6.9l2.6-6.9h2.3v10.7h-2.1v-6.9l-2.6,6.9h-2.3V68.5H71.9z"/>
	<path class="st2" d="M84.1,68.5v4.1h2.5v-4.1h2.2v10.7h-2.2v-4.8h-2.5v4.8H82V68.5H84.1z"/>
	<path class="st2" d="M91.8,79c-0.5-0.3-0.8-0.6-1.1-1.1s-0.4-1.1-0.5-1.7s-0.1-1.4-0.1-2.3c0-0.8,0-1.6,0.1-2.2
		c0.1-0.7,0.2-1.3,0.5-1.8s0.6-0.9,1.1-1.1c0.5-0.3,1.1-0.4,1.9-0.4s1.5,0.1,1.9,0.4c0.5,0.3,0.8,0.7,1.1,1.1s0.4,1.1,0.5,1.8
		c0.1,0.7,0.1,1.4,0.1,2.2c0,0.8,0,1.6-0.1,2.3s-0.2,1.3-0.5,1.7s-0.6,0.9-1.1,1.1c-0.5,0.3-1.1,0.4-1.9,0.4S92.3,79.2,91.8,79z
		 M94.5,77.6c0.2-0.1,0.3-0.4,0.5-0.7c0.1-0.3,0.2-0.7,0.2-1.2s0.1-1.1,0.1-1.8c0-0.7,0-1.3-0.1-1.8s-0.1-0.9-0.2-1.2
		c-0.1-0.3-0.3-0.6-0.5-0.7S94,70,93.7,70s-0.6,0.1-0.8,0.2c-0.2,0.1-0.3,0.4-0.5,0.7c-0.1,0.3-0.2,0.7-0.2,1.2s-0.1,1.1-0.1,1.8
		s0,1.3,0.1,1.8s0.1,0.9,0.2,1.2c0.1,0.3,0.3,0.5,0.5,0.7c0.2,0.1,0.5,0.2,0.8,0.2S94.3,77.7,94.5,77.6z"/>
	<path class="st2" d="M102.3,68.5c0.4,0,0.8,0,1.2,0.1s0.7,0.2,1,0.5c0.3,0.2,0.5,0.5,0.6,0.8c0.2,0.3,0.2,0.8,0.2,1.3
		c0,0.6-0.1,1.1-0.4,1.5s-0.7,0.7-1.2,0.8l0,0c0.6,0.1,1.1,0.3,1.4,0.8c0.3,0.4,0.5,1,0.5,1.7c0,0.4-0.1,0.8-0.2,1.2
		c-0.1,0.4-0.3,0.7-0.6,1c-0.3,0.3-0.6,0.5-1,0.7s-1,0.3-1.6,0.3h-3.6V68.5H102.3z M102.8,72.6c0.3-0.2,0.4-0.6,0.4-1.1
		s-0.1-0.9-0.4-1.1s-0.6-0.3-1.2-0.3h-0.8v2.8h0.6C102,72.9,102.5,72.8,102.8,72.6z M102.9,77.3c0.3-0.2,0.5-0.7,0.5-1.3
		c0-0.3,0-0.6-0.1-0.8s-0.2-0.4-0.3-0.5c-0.1-0.1-0.3-0.2-0.5-0.3c-0.2,0-0.4-0.1-0.7-0.1h-0.9v3.2h0.8
		C102.2,77.6,102.6,77.5,102.9,77.3z"/>
	<path class="st2" d="M108.5,79c-0.5-0.3-0.8-0.6-1.1-1.1s-0.4-1.1-0.5-1.7s-0.1-1.4-0.1-2.3c0-0.8,0-1.6,0.1-2.2
		c0.1-0.7,0.2-1.3,0.5-1.8s0.6-0.9,1.1-1.1c0.5-0.3,1.1-0.4,1.9-0.4s1.5,0.1,1.9,0.4c0.5,0.3,0.8,0.7,1.1,1.1s0.4,1.1,0.5,1.8
		c0.1,0.7,0.1,1.4,0.1,2.2c0,0.8,0,1.6-0.1,2.3s-0.2,1.3-0.5,1.7s-0.6,0.9-1.1,1.1c-0.5,0.3-1.1,0.4-1.9,0.4S109,79.2,108.5,79z
		 M111.2,77.6c0.2-0.1,0.3-0.4,0.5-0.7c0.1-0.3,0.2-0.7,0.2-1.2s0.1-1.1,0.1-1.8c0-0.7,0-1.3-0.1-1.8s-0.1-0.9-0.2-1.2
		c-0.1-0.3-0.3-0.6-0.5-0.7s-0.5-0.2-0.8-0.2s-0.6,0.1-0.8,0.2c-0.2,0.1-0.3,0.4-0.5,0.7c-0.1,0.3-0.2,0.7-0.2,1.2s-0.1,1.1-0.1,1.8
		s0,1.3,0.1,1.8s0.1,0.9,0.2,1.2c0.1,0.3,0.3,0.5,0.5,0.7c0.2,0.1,0.5,0.2,0.8,0.2S111,77.7,111.2,77.6z"/>
	<path class="st2" d="M116.8,79c-0.5-0.3-0.8-0.6-1.1-1.1s-0.4-1.1-0.5-1.7s-0.1-1.4-0.1-2.3c0-0.8,0-1.6,0.1-2.2
		c0.1-0.7,0.2-1.3,0.5-1.8s0.6-0.9,1.1-1.1c0.5-0.3,1.1-0.4,1.9-0.4s1.4,0.1,1.8,0.4s0.8,0.6,1,1s0.4,0.8,0.4,1.2
		c0.1,0.4,0.1,0.9,0.1,1.3h-2.2c0-0.8-0.1-1.3-0.3-1.7c-0.2-0.4-0.5-0.5-1-0.5c-0.3,0-0.5,0.1-0.7,0.2s-0.3,0.4-0.4,0.7
		c-0.1,0.3-0.2,0.8-0.2,1.3s-0.1,1.2-0.1,1.9c0,0.8,0,1.5,0.1,2s0.1,0.9,0.3,1.2c0.1,0.3,0.3,0.5,0.4,0.6c0.2,0.1,0.4,0.1,0.6,0.1
		s0.4,0,0.5-0.1c0.2-0.1,0.3-0.2,0.4-0.4c0.1-0.2,0.2-0.5,0.3-0.8c0.1-0.4,0.1-0.8,0.1-1.4h2.2c0,0.6,0,1.1-0.1,1.7s-0.3,1-0.5,1.3
		c-0.2,0.4-0.6,0.7-1,0.9c-0.4,0.2-1,0.3-1.7,0.3C118,79.4,117.3,79.2,116.8,79z"/>
	<path class="st2" d="M129.4,68.5v1.8h-3.8v2.5h3.6v1.8h-3.6v2.9h4v1.8h-6.1V68.5H129.4z"/>
	<path class="st2" d="M130.3,79.3c-0.2,0-0.3,0-0.4-0.1v-1.8c0,0,0.1,0,0.2,0c0.1,0,0.1,0,0.1,0c0.2,0,0.3,0,0.5,0
		c0.1,0,0.3-0.1,0.4-0.3c0.1-0.2,0.2-0.4,0.3-0.8s0.2-0.9,0.2-1.5c0.1-0.7,0.1-1.5,0.1-2.5s0-2.3,0-3.7h6.1v10.7h-2.2v-8.9h-1.9
		c0,1.3,0,2.4-0.1,3.3s-0.1,1.7-0.2,2.4s-0.2,1.2-0.3,1.6s-0.3,0.8-0.5,1s-0.5,0.4-0.8,0.5s-0.7,0.1-1.1,0.1
		C130.7,79.3,130.5,79.3,130.3,79.3z"/>
	<path class="st2" d="M144.1,68.5l2.8,10.7h-2.3l-0.5-2.3h-2.8l-0.5,2.3h-2.3l2.8-10.7H144.1z M142.8,70.4L142.8,70.4l-1.1,4.8h2.1
		L142.8,70.4z"/>
	<path class="st2" d="M150.9,68.5l1.5,7.6l0,0l1.5-7.6h3.2v10.7h-2v-8.5l0,0l-1.9,8.5h-1.7l-1.9-8.5l0,0v8.5h-2V68.5H150.9z"/>
</g>
<g class="st1">
	<path class="st2" d="M47.8,84.5v6.9l2.6-6.9h2.3v10.7h-2.1v-6.9L48,95.2h-2.3V84.5H47.8z"/>
	<path class="st2" d="M57.5,95.3c-0.2,0-0.3,0-0.4-0.1v-1.8c0,0,0.1,0,0.2,0c0.1,0,0.1,0,0.1,0c0.2,0,0.3,0,0.5,0
		c0.1,0,0.3-0.1,0.4-0.3c0.1-0.2,0.2-0.4,0.3-0.8s0.2-0.9,0.2-1.5c0.1-0.7,0.1-1.5,0.1-2.5s0-2.3,0-3.7H65v10.7h-2.2v-8.9H61
		c0,1.3,0,2.4-0.1,3.3s-0.1,1.7-0.2,2.4s-0.2,1.2-0.3,1.6s-0.3,0.8-0.5,1s-0.5,0.4-0.8,0.5s-0.7,0.1-1.1,0.1
		C57.9,95.3,57.7,95.3,57.5,95.3z"/>
	<path class="st2" d="M68.7,84.5v4h1.1c0.5,0,1,0.1,1.5,0.2c0.4,0.1,0.8,0.3,1.1,0.6s0.5,0.6,0.7,1s0.2,0.9,0.2,1.5
		s-0.1,1.1-0.2,1.6c-0.2,0.4-0.4,0.8-0.7,1c-0.3,0.3-0.7,0.5-1.1,0.6s-0.9,0.2-1.4,0.2h-3.3V84.5H68.7z M70.7,93.2
		c0.3-0.2,0.4-0.7,0.4-1.4c0-0.3,0-0.6-0.1-0.8c-0.1-0.2-0.2-0.4-0.3-0.5s-0.3-0.2-0.5-0.3c-0.2,0-0.5-0.1-0.7-0.1h-0.7v3.4h0.6
		C69.9,93.6,70.4,93.4,70.7,93.2z"/>
	<path class="st2" d="M80.2,84.5v1.8h-3.6v8.9h-2.2V84.5H80.2z"/>
	<path class="st2" d="M82.5,95c-0.5-0.3-0.8-0.6-1.1-1.1s-0.4-1.1-0.5-1.7s-0.1-1.4-0.1-2.3c0-0.8,0-1.6,0.1-2.2
		c0.1-0.7,0.2-1.3,0.5-1.8s0.6-0.9,1.1-1.1c0.5-0.3,1.1-0.4,1.9-0.4s1.5,0.1,1.9,0.4c0.5,0.3,0.8,0.7,1.1,1.1s0.4,1.1,0.5,1.8
		c0.1,0.7,0.1,1.4,0.1,2.2c0,0.8,0,1.6-0.1,2.3c-0.1,0.7-0.2,1.3-0.5,1.7s-0.6,0.9-1.1,1.1c-0.5,0.3-1.1,0.4-1.9,0.4
		S83,95.2,82.5,95z M85.2,93.6c0.2-0.1,0.3-0.4,0.5-0.7c0.1-0.3,0.2-0.7,0.2-1.2s0.1-1.1,0.1-1.8c0-0.7,0-1.3-0.1-1.8
		s-0.1-0.9-0.2-1.2c-0.1-0.3-0.3-0.6-0.5-0.7S84.7,86,84.4,86s-0.6,0.1-0.8,0.2c-0.2,0.1-0.3,0.4-0.5,0.7c-0.1,0.3-0.2,0.7-0.2,1.2
		s0.1,1,0.1,1.7s0,1.3,0.1,1.8s0.1,0.9,0.2,1.2c0.1,0.3,0.3,0.5,0.5,0.7c0.2,0.1,0.5,0.2,0.8,0.2S85,93.7,85.2,93.6z"/>
	<path class="st2" d="M88.8,86.3v-1.8h6.8v1.8h-2.3v8.9h-2.2v-8.9H88.8z"/>
	<path class="st2" d="M98.7,84.5v4.1h2.5v-4.1h2.2v10.7h-2.2v-4.8h-2.5v4.8h-2.2V84.5H98.7z"/>
	<path class="st2" d="M107,84.5v6.9l2.6-6.9h2.3v10.7h-2.1v-6.9l-2.6,6.9h-2.3V84.5H107z"/>
	<path class="st2" d="M115.6,84.5v4.3l0,0l2.7-4.3h2.3l-2.9,4.6l3.2,6.1h-2.4l-2.2-4.4l-0.8,1.2v3.2h-2.2V84.5H115.6z"/>
	<path class="st2" d="M126.2,84.5l2.8,10.7h-2.3l-0.5-2.3h-2.8l-0.5,2.3h-2.3l2.8-10.7H126.2z M124.9,86.4L124.9,86.4l-1.1,4.8h2.1
		L124.9,86.4z"/>
	<path class="st2" d="M133.1,84.5l1.5,7.6l0,0l1.5-7.6h3.2v10.7h-2v-8.5l0,0l-1.9,8.5h-1.7l-1.9-8.5l0,0v8.5h-2V84.5H133.1z"/>
</g>
<g>
	<path class="st3" d="M95.5,36.4c-1,0-1.9,0.4-2.5,1c-0.5,0.6-0.8,1.4-0.8,2.3c0,1.6,1,3.3,3.3,3.3c1,0,1.9-0.4,2.5-1
		c0.5-0.6,0.8-1.4,0.8-2.3C98.8,38.1,97.8,36.4,95.5,36.4z"/>
	<path class="st3" d="M108,10H69.6c-2.2,0-4.2,1.8-4.2,4v43c0,1.8,0.6,4,2.2,4c1.3,0,3.5-2,3.7-2.2l1.8-1.7c0.3-0.3,0.7-0.4,1.1-0.4
		s0.8,0.2,1.1,0.4l1.7,1.7c1.1,1.1,3.1,2.2,4.5,2.2s3.4-1.2,4.5-2.2l1.7-1.7c0.3-0.3,0.7-0.4,1.1-0.4s0.8,0.2,1.1,0.4l1.7,1.7
		c1.1,1.1,3.1,2.2,4.5,2.2s3.4-1.2,4.5-2.2l1.7-1.7c0.3-0.3,0.7-0.4,1.1-0.4s0.8,0.2,1.1,0.4l1.7,1.7c0.9,0.8,2.4,2.2,3.5,2.2
		c1.3,0,2-1.4,2-4V14C111.8,11.7,110.1,10,108,10z M77.5,20.8c1.2-1.3,2.8-1.9,4.8-1.9c4.2,0,6.4,3.1,6.4,6.2c0,1.6-0.6,3.1-1.6,4.3
		c-1.2,1.3-2.8,1.9-4.8,1.9c-4.2,0-6.4-3.1-6.4-6.2C75.9,23.5,76.4,21.9,77.5,20.8z M80.9,43.4h-4.1l20-22.2l4.1-0.1L80.9,43.4z
		 M100.2,43.9c-1.2,1.2-2.8,1.9-4.7,1.9c-4.1,0-6.3-3.1-6.3-6.1c0-1.6,0.6-3.1,1.6-4.2c1.1-1.2,2.8-1.9,4.7-1.9
		c4.1,0,6.3,3.1,6.3,6.1C101.8,41.3,101.2,42.8,100.2,43.9z"/>
	<path class="st3" d="M82.3,28.4c1,0,1.9-0.3,2.5-1c0.5-0.6,0.8-1.4,0.8-2.3c0-1.6-1.1-3.3-3.4-3.3c-2.4,0-3.4,1.6-3.4,3.3
		C78.8,26.6,79.9,28.4,82.3,28.4z"/>
</g>
</svg>
