<?xml version="1.0" encoding="utf-8"?>
<!-- Generator: Adobe Illustrator 21.1.0, SVG Export Plug-In . SVG Version: 6.00 Build 0)  -->
<svg version="1.1" id="Слой_1" xmlns="http://www.w3.org/2000/svg" xmlns:xlink="http://www.w3.org/1999/xlink" x="0px" y="0px"
	 viewBox="0 0 134 10" style="enable-background:new 0 0 134 10;" xml:space="preserve">
<style type="text/css">
	.st0{fill:#1B7393;}
</style>
<g>
	<path class="st0" d="M8.6,3.8c0,0.5-0.1,1-0.2,1.5S8,6,7.8,6.3C7.5,6.6,7.2,6.8,6.9,7S6.2,7.3,5.8,7.3c-0.3,0-0.6,0-0.9-0.1
		S4.3,7,4.1,6.9v2.7H3v-9h1.1v0.7c0.3-0.2,0.6-0.5,1-0.6s0.8-0.2,1.2-0.2c0.8,0,1.4,0.3,1.8,0.9S8.6,2.8,8.6,3.8z M7.5,3.8
		C7.5,3,7.4,2.4,7.1,2S6.4,1.5,5.9,1.5c-0.3,0-0.6,0.1-1,0.2S4.3,2,4,2.2v3.7C4.3,6,4.6,6.1,4.8,6.2s0.5,0.1,0.8,0.1
		C6.2,6.3,6.7,6,7,5.7S7.5,4.7,7.5,3.8z"/>
	<path class="st0" d="M15.8,4H11c0,0.4,0.1,0.8,0.2,1.1s0.3,0.5,0.5,0.7s0.4,0.3,0.7,0.4s0.6,0.1,0.9,0.1c0.4,0,0.9-0.1,1.3-0.3
		s0.8-0.4,1-0.5h0.1v1.3C15.3,7,14.9,7,14.6,7.2s-0.8,0.2-1.2,0.2c-1.1,0-1.9-0.3-2.5-0.9S10,5,10,4s0.3-1.9,0.9-2.5
		s1.4-0.9,2.3-0.9c0.9,0,1.6,0.3,2,0.8s0.7,1.2,0.7,2.2V4H15.8z M14.8,3.2c0-0.6-0.1-1-0.4-1.3s-0.7-0.5-1.3-0.5S12,1.6,11.7,1.9
		s-0.5,0.8-0.6,1.3H14.8z"/>
	<path class="st0" d="M23.7,7.2h-1.1V2L21,5.4h-0.8L18.6,2v5.2h-1V0.7h1.2l1.8,3.7l1.7-3.7h1.4V7.2z"/>
	<path class="st0" d="M31.4,3.8c0,1.1-0.3,1.9-0.8,2.5s-1.3,0.9-2.2,0.9c-0.9,0-1.7-0.3-2.2-0.9s-0.8-1.5-0.8-2.5s0.3-1.9,0.8-2.5
		s1.3-0.9,2.2-0.9s1.7,0.3,2.2,0.9S31.4,2.8,31.4,3.8z M30.3,3.8c0-0.8-0.2-1.5-0.5-1.9S29,1.3,28.4,1.3S27.3,1.5,27,1.9
		s-0.5,1-0.5,1.9c0,0.8,0.2,1.4,0.5,1.9s0.8,0.6,1.4,0.6c0.6,0,1-0.2,1.4-0.6S30.3,4.7,30.3,3.8z"/>
	<path class="st0" d="M38.6,7.2h-1.1V4.3h-3.3v2.9h-1.1V0.7h1.1v2.6h3.3V0.7h1.1V7.2z"/>
	<path class="st0" d="M45.6,1.5h-2.4v5.6h-1.1V1.5h-2.3v-1h5.8V1.5z"/>
	<path class="st0" d="M52.2,7.2h-1.1V4.3h-3.3v2.9h-1.1V0.7h1.1v2.6h3.3V0.7h1.1V7.2z"/>
	<path class="st0" d="M59.5,7.2h-1.1V6.5c-0.1,0.1-0.2,0.2-0.4,0.3S57.7,7,57.5,7s-0.4,0.2-0.6,0.2s-0.5,0.1-0.8,0.1
		c-0.6,0-1.1-0.2-1.5-0.6S54,5.8,54,5.3c0-0.5,0.1-0.9,0.3-1.2s0.5-0.5,0.9-0.7s0.9-0.3,1.4-0.4s1.2-0.1,1.8-0.1V2.6
		c0-0.3,0-0.5-0.1-0.6s-0.2-0.3-0.4-0.4c-0.2-0.1-0.3-0.2-0.6-0.2s-0.4,0-0.7,0c-0.3,0-0.6,0-1,0.1s-0.7,0.2-1.1,0.3h-0.1V0.8
		c0.2-0.1,0.5-0.1,0.9-0.2s0.8-0.1,1.2-0.1c0.5,0,0.9,0,1.2,0.1s0.6,0.2,0.9,0.4c0.2,0.2,0.4,0.4,0.6,0.7s0.2,0.6,0.2,1.1L59.5,7.2
		L59.5,7.2z M58.4,5.5V3.8c-0.3,0-0.7,0-1.2,0.1S56.4,3.9,56.1,4c-0.3,0.1-0.6,0.2-0.8,0.4S55,5,55,5.3C55,5.7,55.1,6,55.3,6
		s0.6,0.3,1,0.3s0.7-0.1,1.1-0.2S58.1,5.8,58.4,5.5z"/>
	<path class="st0" d="M66.6,7.2h-1.1V4.6h-1.3l-2,2.6h-1.3l2.2-2.7c-0.6-0.2-1-0.4-1.2-0.7S61.5,3,61.5,2.5c0-0.3,0.1-0.6,0.2-0.9
		s0.4-0.4,0.6-0.6c0.2-0.1,0.5-0.2,0.8-0.3s0.6-0.1,1-0.1h2.5C66.6,0.6,66.6,7.2,66.6,7.2z M65.5,3.7V1.5h-1.4c-0.3,0-0.5,0-0.7,0
		S63.1,1.5,63,1.7c-0.2,0.1-0.3,0.2-0.3,0.3s-0.1,0.3-0.1,0.5s0,0.4,0.1,0.5s0.1,0.3,0.3,0.4c0.1,0.1,0.3,0.2,0.5,0.2
		s0.4,0.1,0.7,0.1H65.5z"/>
	<path class="st0" d="M78.9,7.2h-1.4l-2.7-3h-0.6v3h-1.1V0.7h1.1v2.8c0.4,0,0.7-0.1,0.9-0.2s0.4-0.3,0.6-0.6
		c0.1-0.1,0.1-0.2,0.2-0.3s0.1-0.2,0.2-0.3c0.2-0.4,0.5-0.8,0.8-1s0.7-0.3,1.3-0.3h0.5v0.9h-0.5c-0.3,0-0.5,0.1-0.7,0.2
		S77.2,2.3,77,2.6c-0.2,0.4-0.3,0.6-0.5,0.8s-0.4,0.3-0.6,0.4L78.9,7.2z"/>
	<path class="st0" d="M85.7,3.8c0,1.1-0.3,1.9-0.8,2.5s-1.3,0.9-2.2,0.9c-0.9,0-1.7-0.3-2.2-0.9s-0.8-1.5-0.8-2.5s0.3-1.9,0.8-2.5
		s1.3-0.9,2.2-0.9c0.9,0,1.7,0.3,2.2,0.9S85.7,2.8,85.7,3.8z M84.6,3.8c0-0.8-0.2-1.5-0.5-1.9s-0.8-0.6-1.4-0.6s-1.1,0.2-1.4,0.6
		s-0.5,1-0.5,1.9c0,0.8,0.2,1.4,0.5,1.9s0.8,0.6,1.4,0.6s1-0.2,1.4-0.6S84.6,4.7,84.6,3.8z"/>
	<path class="st0" d="M93.6,7.2h-1.1V2l-1.6,3.4h-0.8L88.5,2v5.2h-1V0.7h1.3l1.8,3.7l1.7-3.7h1.4L93.6,7.2L93.6,7.2z"/>
	<path class="st0" d="M101.2,7.2h-1.1V1.6h-3.3v5.6h-1V0.7h5.5v6.5H101.2z"/>
	<path class="st0" d="M108.5,7.2h-1.1V6.5c-0.1,0.1-0.2,0.2-0.4,0.3S106.7,7,106.5,7s-0.4,0.2-0.6,0.2s-0.5,0.1-0.8,0.1
		c-0.6,0-1.1-0.2-1.5-0.6S103,5.8,103,5.3c0-0.5,0.1-0.9,0.3-1.2s0.5-0.5,0.9-0.7s0.9-0.3,1.4-0.4s1.2-0.1,1.8-0.1V2.6
		c0-0.3,0-0.5-0.1-0.6s-0.2-0.3-0.4-0.4c-0.2-0.1-0.3-0.2-0.6-0.2s-0.4,0-0.7,0s-0.6,0-1,0.1s-0.7,0.2-1.1,0.3h-0.1V0.8
		c0.2-0.1,0.5-0.1,0.9-0.2s0.8-0.1,1.2-0.1c0.5,0,0.9,0,1.2,0.1s0.6,0.2,0.9,0.4c0.2,0.2,0.4,0.4,0.6,0.7s0.2,0.6,0.2,1.1v4.4H108.5
		z M107.4,5.5V3.8c-0.3,0-0.7,0-1.2,0.1s-0.8,0.1-1.1,0.2c-0.3,0.1-0.6,0.2-0.8,0.4S104,5,104,5.3c0,0.4,0.1,0.7,0.3,0.8
		s0.6,0.3,1,0.3s0.7-0.1,1.1-0.2S107.1,5.8,107.4,5.5z"/>
	<path class="st0" d="M116.1,7.2H115V4.3h-3.3v2.9h-1.1V0.7h1.1v2.6h3.3V0.7h1.1V7.2z"/>
	<path class="st0" d="M123.8,7.2h-1.1V2.3l-3.4,4.9h-1V0.7h1.1v4.8l3.4-4.8h1V7.2z"/>
	<path class="st0" d="M131,7.2h-1.1V4.6h-1.3l-2,2.6h-1.3l2.2-2.7c-0.6-0.2-1-0.4-1.2-0.7s-0.4-0.7-0.4-1.3c0-0.3,0.1-0.6,0.2-0.9
		s0.4-0.4,0.6-0.6c0.2-0.1,0.5-0.2,0.8-0.3s0.6-0.1,1-0.1h2.5V7.2z M129.9,3.7V1.5h-1.4c-0.3,0-0.5,0-0.7,0s-0.3,0.1-0.4,0.2
		c-0.2,0.1-0.3,0.2-0.3,0.3S127,2.3,127,2.5s0,0.4,0.1,0.5s0.1,0.3,0.3,0.4c0.1,0.1,0.3,0.2,0.5,0.2s0.4,0.1,0.7,0.1H129.9z"/>
</g>
</svg>
