<?xml version="1.0" encoding="iso-8859-1"?>
<!-- Generator: Adobe Illustrator 21.0.1, SVG Export Plug-In . SVG Version: 6.00 Build 0)  -->
<svg version="1.1" id="&#x421;&#x43B;&#x43E;&#x439;_1"
	 xmlns="http://www.w3.org/2000/svg" xmlns:xlink="http://www.w3.org/1999/xlink" x="0px" y="0px" viewBox="0 0 14 14"
	 style="enable-background:new 0 0 14 14;" xml:space="preserve">
<path style="fill:#0065A7;" d="M3.3,8.6h3.3V6.3H3.3V8.6z M3.7,8.2V7.5h2.402v0.7H3.7z M6.1,6.8V7H3.7V6.8H6.1z"/>
<path style="fill:#0065A7;" d="M3.3,9.6v2.8h3.3V9.6H3.3z M4.7,10v0.7h-1V10H4.7z M3.7,11.2h0.9v0.7H3.7V11.2z M5.1,11.9v-0.7H6v0.7
	H5.1z M6.1,10.7h-1V10H6v0.7H6.1z"/>
<path style="fill:#0065A7;" d="M7.5,8.6h3.3V6.3H7.5V8.6z M7.9,8.2V7.9h2.394v0.2H7.9V8.2z M10.3,6.8v0.7H7.9V6.8H10.3z"/>
<path style="fill:#0065A7;" d="M12.8,11.8V7.2c0.1,0.1,0.3,0.1,0.4,0.1c0.3,0,0.365-0.135,0.565-0.335
	C13.965,6.765,13.953,6.6,14,6.3c0-0.3-0.1-0.5-0.3-0.7L7.6,1L7,0.4L6.4,1l-6,4.6C0.2,5.8,0.1,6,0.1,6.3S0.2,6.8,0.3,7
	C0.6,7.3,1,7.3,1.4,7.2v4.7L1.394,14H7.3h3.3h2.192L12.8,11.8z M0.7,6.7C0.6,6.6,0.434,6.266,0.7,6l5.9-4.7L7,1l0.3,0.3l6,4.7
	c0.1,0.1,0.2,0.2,0.2,0.3s0,0.3-0.1,0.4c-0.2,0.2-0.4,0.2-0.6,0.1l-0.1-0.1l0,0L7,2.3L1.5,6.6l0,0L1.3,6.7C1.1,6.9,0.8,6.8,0.7,6.7z
	 M7.9,13.5V10h2.3v3.5H7.9z M12.1,13.5h-1.4v-4H7.5v4H1.9V6.9l5.1-4l5.1,4V13.5z"/>
</svg>
